/* XPM */
static char * chopoutline_xpm[] = {
"24 24 65 1",
" 	c None",
".	c #000000",
"+	c #2E2E2E",
"@	c #2D2D2D",
"#	c #545454",
"$	c #5F5F5F",
"%	c #575757",
"&	c #535353",
"*	c #2F2F2F",
"=	c #1B1B1B",
"-	c #343434",
";	c #5D5D5D",
">	c #5E5E5E",
",	c #262626",
"'	c #151515",
")	c #1D1D1D",
"!	c #969696",
"~	c #989898",
"{	c #161616",
"]	c #414141",
"^	c #9F9F9F",
"/	c #242424",
"(	c #A3A3A3",
"_	c #999999",
":	c #8B8B8B",
"<	c #7B7B7B",
"[	c #6F6F6F",
"}	c #868686",
"|	c #838383",
"1	c #ADADAD",
"2	c #B3B3B3",
"3	c #AFAFAF",
"4	c #B4B4B4",
"5	c #8E8E8E",
"6	c #6C6C6C",
"7	c #BDBDBD",
"8	c #CBCBCB",
"9	c #D0D0D0",
"0	c #DBDBDB",
"a	c #E9E9E9",
"b	c #E6E6E6",
"c	c #7D7D7D",
"d	c #878787",
"e	c #A5A5A5",
"f	c #B6B6B6",
"g	c #D1D1D1",
"h	c #D6D6D6",
"i	c #DEDEDE",
"j	c #EBEBEB",
"k	c #E8E8E8",
"l	c #EDEDED",
"m	c #888888",
"n	c #F7F7F7",
"o	c #B2B2B2",
"p	c #C1C1C1",
"q	c #CECECE",
"r	c #DDDDDD",
"s	c #F2F2F2",
"t	c #717171",
"u	c #C4C4C4",
"v	c #E7E7E7",
"w	c #C3C3C3",
"x	c #EAEAEA",
"y	c #727272",
"z	c #6B6B6B",
"                        ",
"  ..                    ",
"  ..                    ",
"                    ++  ",
"   ..             @#$%+ ",
"   ..           +&$*=-; ",
"              +#>,')+!  ",
"    ..     ~+&$+{'+$    ",
"    ..   ~+]^$]/+(      ",
"       _*:<![}+$        ",
"     ~+|~12345          ",
"   ~+6:37890abc         ",
" ~+6defghijbbkl         ",
"+6mnopqrkbbklsnt        ",
"c^ou8ikvbklsnt+         ",
"+rw0xbbklsny@           ",
" crabklsnz+             ",
" +bblsnz+               ",
"  csn[+  ..             ",
"  +z+    ..             ",
"            ..          ",
"            ..          ",
"                        ",
"                        "};
