/* XPM */
static char * eraser_xpm[] = {
"22 22 5 1",
".	c None",
"+	c #000000",
"@	c #FFFFFF",
"#	c #949194",
"$	c #DEDADE",
"......................",
"......................",
"......................",
"......................",
"......................",
"..........++++++++....",
".........+@@@@@@++#...",
"........+@@@@@@+$+#...",
".......+@@@@@@+$$+#...",
"......+@@@@@@+$$+##...",
".....+@@@@@@+$$+##....",
"....+@@@@@@+$$+##.....",
"...++++++++$$+##......",
"...+$$$$$$+$+##.......",
"...+$$$$$$++##........",
"...++++++++##.........",
"....########..........",
"......................",
"......................",
"......................",
"......................",
"......................"};
