/* XPM */
static char *magnify_xpm[] = {
"22 23 4 1",
". c #000000",
"$ c #DEDADE",
"* c #FFFFFF",
"+ c None",
"++++++++++++++++++++++",
"++++++++++++++++++++++",
"++++++++++++++++++++++",
"++++++......$$++++++++",
"+++++..****..$$+++++++",
"++++..**$$**..$$++++++",
"+++..****$$**..$++++++",
"+++.******$$**.$++++++",
"+++.*******$$*.$++++++",
"+++.**********.$++++++",
"+++..********..$++++++",
"++++..******..$$++++++",
"+++++..****...$+++++++",
"++++++.........$++++++",
"+++++++++++++...$+++++",
"++++++++++++++...$++++",
"+++++++++++++++...$+++",
"++++++++++++++++..$+++",
"++++++++++++++++++++++",
"++++++++++++++++++++++",
"++++++++++++++++++++++",
"++++++++++++++++++++++",
"++++++++++++++++++++++"};
