/* XPM */
static char * save_xpm[] = {
"28 22 52 1",
".	c None",
"+	c #000000",
"@	c #739DAC",
"#	c #4A595A",
"$	c #BDD2D5",
"%	c #ACC2C5",
"&	c #E6EEEE",
"*	c #FFFFFF",
"=	c #EEF2F6",
"-	c #E6EAEE",
";	c #83AAB4",
">	c #ACC6CD",
",	c #F6FAFF",
"'	c #8BAEB4",
")	c #394C52",
"!	c #94B2BD",
"~	c #CDDEDE",
"{	c #7B898B",
"]	c #EEEEF6",
"^	c #F6F6F6",
"/	c #62797B",
"(	c #526D73",
"_	c #A4BEC5",
":	c #415D62",
"<	c #4A555A",
"[	c #52717B",
"}	c #A4AAAC",
"|	c #EEEAEE",
"1	c #E6E6E6",
"2	c #626162",
"3	c #C5CACD",
"4	c #F6F2F6",
"5	c #E6E2E6",
"6	c #ACB2B4",
"7	c #4A6162",
"8	c #31444A",
"9	c #739194",
"0	c #BDC2C5",
"a	c #52696A",
"b	c #CDDADE",
"c	c #DEDEDE",
"d	c #DEDADE",
"e	c #8B9194",
"f	c #39444A",
"g	c #7BA5AC",
"h	c #D5DADE",
"i	c #B4B6B4",
"j	c #627173",
"k	c #D5D6D5",
"l	c #A4B2B4",
"m	c #4A484A",
"n	c #8B999C",
"............................",
"............................",
"................++..........",
"..............++@#+.........",
"............++$%&@+.........",
"..........++$%$*=@#+........",
"........++$%$****-@+........",
"......++;>$******,')+.......",
".....+!>~*********&@+.......",
".....+{!=*********]@#+......",
"......+%-*******^-@@@+......",
"......+/;=****^-@@((@#+.....",
".......+_-**^-@@:<[@(@+.....",
".......+/;]-@@:}|12@(@#+....",
"........+!@@(3441567@:8+....",
"........+9;@0^ab1cde@)++....",
".........+!@(4fgh5ij++......",
".........+[@@k|lkem+........",
"..........+7@(cn++..........",
"...........+++++............",
"............................",
"............................"};
