#define autotrace_cursor_mask_width 24
#define autotrace_cursor_mask_height 24
#define autotrace_cursor_mask_x_hot 20
#define autotrace_cursor_mask_y_hot 19
static unsigned char autotrace_cursor_mask_bits[] = {
   0x00, 0x00, 0x00, 0x36, 0x01, 0x00, 0xac, 0x01, 0x00, 0x58, 0x00, 0x00,
   0xae, 0x01, 0x00, 0x5c, 0x01, 0x00, 0xf8, 0x00, 0x00, 0x2c, 0x03, 0x00,
   0xa4, 0x07, 0x00, 0x00, 0x0f, 0x00, 0x00, 0x1e, 0x01, 0x00, 0xbc, 0x03,
   0x00, 0xf8, 0x03, 0x00, 0xf0, 0x07, 0x00, 0xf8, 0x07, 0x00, 0xfc, 0x0f,
   0x00, 0xf8, 0x0f, 0x00, 0xe0, 0x0f, 0x00, 0x80, 0x1f, 0x00, 0x00, 0x1e,
   0x00, 0x00, 0x18, 0x00, 0x00, 0x00, 0x00, 0x00, 0x00, 0x00, 0x00, 0x00 };
