/* XPM */
static char * despeckle_xpm[] = {
"27 24 315 2",
"  	c None",
". 	c #034414",
"+ 	c #9F6F33",
"@ 	c #E9DFDB",
"# 	c #FFFEFE",
"$ 	c #FFFFFF",
"% 	c #F4F4F4",
"& 	c #C6C6C6",
"* 	c #9A9A9A",
"= 	c #8F8F8F",
"- 	c #BDBDBD",
"; 	c #CEC5C3",
"> 	c #FCFAFA",
", 	c #FDFDFD",
"' 	c #F6F6F6",
") 	c #EBEBEB",
"! 	c #DDDDDD",
"~ 	c #D5D5D5",
"{ 	c #A1A1A1",
"] 	c #7D7D7D",
"^ 	c #747474",
"/ 	c #C0AEA9",
"( 	c #F7F5F4",
"_ 	c #D6D6D6",
": 	c #ACACAC",
"< 	c #757575",
"[ 	c #565656",
"} 	c #404040",
"| 	c #323232",
"1 	c #262626",
"2 	c #242424",
"3 	c #4D4D4D",
"4 	c #7B7B7B",
"5 	c #C5B1AA",
"6 	c #F8F6F5",
"7 	c #FCFCFC",
"8 	c #E4E4E4",
"9 	c #C1C1C1",
"0 	c #949494",
"a 	c #656565",
"b 	c #161616",
"c 	c #040404",
"d 	c #010101",
"e 	c #000000",
"f 	c #020202",
"g 	c #383838",
"h 	c #727272",
"i 	c #434303",
"j 	c #CCBEB4",
"k 	c #F2F1F0",
"l 	c #EDEDED",
"m 	c #636363",
"n 	c #313131",
"o 	c #0A0A0A",
"p 	c #080808",
"q 	c #585858",
"r 	c #450033",
"s 	c #BFBCB3",
"t 	c #C8C7C7",
"u 	c #979797",
"v 	c #5D5D5D",
"w 	c #2A2A2A",
"x 	c #0E0E0E",
"y 	c #2D2D2D",
"z 	c #848484",
"A 	c #D4D4D4",
"B 	c #9FA09C",
"C 	c #8D8D8C",
"D 	c #3B3B3B",
"E 	c #060606",
"F 	c #202020",
"G 	c #626262",
"H 	c #B4B4B4",
"I 	c #F0F0F0",
"J 	c #7A7474",
"K 	c #4E4E4E",
"L 	c #151515",
"M 	c #050505",
"N 	c #030303",
"O 	c #373737",
"P 	c #A4A4A4",
"Q 	c #E5E5E5",
"R 	c #FAFAFA",
"S 	c #5100C6",
"T 	c #98A58A",
"U 	c #807B73",
"V 	c #4D4647",
"W 	c #1C1C1C",
"X 	c #070707",
"Y 	c #CCCCCC",
"Z 	c #990303",
"` 	c #8A984E",
" .	c #968557",
"..	c #574D43",
"+.	c #2A2728",
"@.	c #050605",
"#.	c #575757",
"$.	c #838383",
"%.	c #0C0C0C",
"&.	c #3C3C3C",
"*.	c #898989",
"=.	c #DCDCDC",
"-.	c #6B7F04",
";.	c #3C503C",
">.	c #0D1E0E",
",.	c #120B19",
"'.	c #1E0C0C",
").	c #372C31",
"!.	c #322632",
"~.	c #2D2F2A",
"{.	c #323031",
"].	c #493A25",
"^.	c #3A3533",
"/.	c #252424",
"(.	c #7C7C7C",
"_.	c #6F6F6F",
":.	c #101010",
"<.	c #535353",
"[.	c #A6A6A6",
"}.	c #563C64",
"|.	c #535252",
"1.	c #DBDBDB",
"2.	c #FEFDFE",
"3.	c #FEFEFE",
"4.	c #F9F9F9",
"5.	c #D7D7D7",
"6.	c #808080",
"7.	c #6B6B6B",
"8.	c #C5C5C5",
"9.	c #121212",
"0.	c #171717",
"a.	c #696969",
"b.	c #C0C0C0",
"c.	c #454040",
"d.	c #CACACA",
"e.	c #A8A8A8",
"f.	c #706F70",
"g.	c #595959",
"h.	c #5F5E5F",
"i.	c #767276",
"j.	c #B7B7B8",
"k.	c #F8F8F8",
"l.	c #EAEAEA",
"m.	c #888888",
"n.	c #E2E2E2",
"o.	c #F7F7F7",
"p.	c #080503",
"q.	c #140D12",
"r.	c #283134",
"s.	c #802F73",
"t.	c #82378E",
"u.	c #583C39",
"v.	c #95264C",
"w.	c #4CA628",
"x.	c #7A6F6E",
"y.	c #30282A",
"z.	c #161A0E",
"A.	c #1B1E19",
"B.	c #787878",
"C.	c #ECECEC",
"D.	c #6C6C6C",
"E.	c #181818",
"F.	c #4A4A4A",
"G.	c #AFAFAF",
"H.	c #57BEAE",
"I.	c #D272A5",
"J.	c #9C309B",
"K.	c #886774",
"L.	c #383564",
"M.	c #5D522C",
"N.	c #888762",
"O.	c #61563B",
"P.	c #1F2B0D",
"Q.	c #030601",
"R.	c #353535",
"S.	c #CBCBCB",
"T.	c #6BCF00",
"U.	c #D3CBCA",
"V.	c #4396CE",
"W.	c #4B2898",
"X.	c #252559",
"Y.	c #728F25",
"Z.	c #1F072F",
"`.	c #2E2F60",
" +	c #4E523B",
".+	c #151C09",
"++	c #797979",
"@+	c #8A8A8A",
"#+	c #2C2C2C",
"$+	c #707070",
"%+	c #E6E6E6",
"&+	c #CBB3AE",
"*+	c #8E8091",
"=+	c #1137A7",
"-+	c #05AB11",
";+	c #214F42",
">+	c #291017",
",+	c #3F0047",
"'+	c #432355",
")+	c #354125",
"!+	c #0B0D06",
"~+	c #878787",
"{+	c #0D0D0D",
"]+	c #2E2E2E",
"^+	c #B2949A",
"/+	c #748D4D",
"(+	c #6F818E",
"_+	c #4E4D6F",
":+	c #56965D",
"<+	c #040D2B",
"[+	c #1E1C0C",
"}+	c #0F4F23",
"|+	c #20291E",
"1+	c #584F17",
"2+	c #414F3A",
"3+	c #333024",
"4+	c #0E0B0B",
"5+	c #030203",
"6+	c #010001",
"7+	c #131313",
"8+	c #090909",
"9+	c #4C4C4C",
"0+	c #E1E1E1",
"a+	c #819362",
"b+	c #432E30",
"c+	c #846014",
"d+	c #0B67BD",
"e+	c #511C61",
"f+	c #712206",
"g+	c #593E30",
"h+	c #173F85",
"i+	c #216F42",
"j+	c #7531A5",
"k+	c #2D2E3F",
"l+	c #1A131B",
"m+	c #0A060B",
"n+	c #333333",
"o+	c #D9D9D9",
"p+	c #3B406F",
"q+	c #216D2C",
"r+	c #414312",
"s+	c #295F8D",
"t+	c #712257",
"u+	c #453409",
"v+	c #687913",
"w+	c #6E3D90",
"x+	c #404741",
"y+	c #363638",
"z+	c #2E2942",
"A+	c #180D18",
"B+	c #050204",
"C+	c #292929",
"D+	c #717171",
"E+	c #60980D",
"F+	c #0D460C",
"G+	c #0B1473",
"H+	c #012000",
"I+	c #7C3CB2",
"J+	c #00608B",
"K+	c #1B0450",
"L+	c #4B1061",
"M+	c #1E1A4B",
"N+	c #33163A",
"O+	c #2D1D2F",
"P+	c #0E090D",
"Q+	c #1B1B1B",
"R+	c #555555",
"S+	c #AEAEAE",
"T+	c #FBFBFB",
"U+	c #A63129",
"V+	c #2E652A",
"W+	c #6F3F18",
"X+	c #025537",
"Y+	c #263A7B",
"Z+	c #302C33",
"`+	c #6F028C",
" @	c #0E2962",
".@	c #012E86",
"+@	c #0E0E44",
"@@	c #190E52",
"#@	c #22133C",
"$@	c #141019",
"%@	c #050502",
"&@	c #272727",
"*@	c #606060",
"=@	c #B1B1B1",
"-@	c #EFEFEF",
";@	c #286A0F",
">@	c #2F1846",
",@	c #648086",
"'@	c #087237",
")@	c #98C2A4",
"!@	c #501B1A",
"~@	c #0E2403",
"{@	c #082F29",
"]@	c #237A40",
"^@	c #253925",
"/@	c #1A1A2B",
"(@	c #17141C",
"_@	c #080605",
":@	c #A7A7A7",
"<@	c #389638",
"[@	c #A80D26",
"}@	c #662C98",
"|@	c #C10D8D",
"1@	c #21BE35",
"2@	c #260E0D",
"3@	c #223D02",
"4@	c #1F162A",
"5@	c #83243A",
"6@	c #6D9311",
"7@	c #10690A",
"8@	c #0A1506",
"9@	c #030301",
"0@	c #5E5E5E",
"                .     +                               ",
"                                            { ] ^ {   ",
"                                      < [ } | 1 2 3 4 ",
"                                9 0 a | b c d e f g h ",
"  i                           : m n b o c d e f p q   ",
"                r         t u v w x d e e e e x y z   ",
"                        B C D b E d e e e e d F G     ",
"                        J K L M d e e e e e N O P     ",
"            S       T U V W N X p e e e e c b q       ",
"          Z       `  ...+.@.d #.$.%.e e e %.&.*.      ",
"-.  ;.>.,.'.).!.~.{.].^./.@.c (.Q _.E e e :.<.[.      ",
"  }.|.1.7 2.$ $ , 3.R 4.5.6.7.8.3.) 4 9.d 0.a.        ",
"    c.d.e.f.g.#.[ h.i.j.k.3.$ $ $ $ l._.o 1 m.        ",
"    p.q.r.s.t.u.v.w.x.y.z.A.B.$ $ $ C.D.E.F.G.        ",
"        H.I.J.K.L.M.N.O.P.Q.:.G.$ % m.L R.z           ",
"T.  U.  V.  W.X.Y.Z.`. +.+e e ++' @+b E #+$+          ",
"    &+*+  =+-+;+>+,+'+)+!+e d (.~+o f d {+]+<         ",
"^+/+(+_+:+<+[+}+|+1+2+3+4+5+6+7+8+e e e N 7+9+*       ",
"  a+b+c+d+e+f+g+h+i+j+k+l+m+6+e e e e e e o n+]       ",
"  p+q+r+s+t+u+v+w+x+y+z+A+B+e e e e e e e p C+D+      ",
"E+F+G+H+I+J+K+  L+M+N+O+P+d e e e e e e e M Q+R+S+    ",
"U+V+W+X+Y+Z+`+ @.@+@@@#@$@%@e e e e e e e d p &@*@=@  ",
"  ;@>@,@'@)@!@~@{@]@^@/@(@_@e e e e e e e e d {+&@7.:@",
"<@[@}@|@1@  2@3@4@5@6@7@8@9@e e e e e e e e d c 8+n+0@"};
