/* XPM */
static char * fin_xpm[] = {
"27 24 93 2",
"  	c None",
". 	c #A0A0A0",
"+ 	c #9D9D9D",
"@ 	c #8F8F8F",
"# 	c #898989",
"$ 	c #000000",
"% 	c #909090",
"& 	c #838383",
"* 	c #7C7C7C",
"= 	c #A2A2A2",
"- 	c #565656",
"; 	c #252525",
"> 	c #060606",
", 	c #232323",
"' 	c #343434",
") 	c #303030",
"! 	c #383838",
"~ 	c #535353",
"{ 	c #818181",
"] 	c #7A7A7A",
"^ 	c #404040",
"/ 	c #1C1C1C",
"( 	c #040404",
"_ 	c #010101",
": 	c #6A6A6A",
"< 	c #545454",
"[ 	c #0F0F0F",
"} 	c #3B3B3B",
"| 	c #A6A6A6",
"1 	c #2A2A2A",
"2 	c #313131",
"3 	c #161616",
"4 	c #222222",
"5 	c #4F4F4F",
"6 	c #B2B2B2",
"7 	c #CACACA",
"8 	c #A7A7A7",
"9 	c #434343",
"0 	c #141414",
"a 	c #0E0E0E",
"b 	c #6D6D6D",
"c 	c #B9B9B9",
"d 	c #777777",
"e 	c #4D4D4D",
"f 	c #1E1E1E",
"g 	c #080808",
"h 	c #090909",
"i 	c #3A3A3A",
"j 	c #9B9B9B",
"k 	c #464646",
"l 	c #0B0B0B",
"m 	c #030303",
"n 	c #0C0C0C",
"o 	c #171717",
"p 	c #A8A8A8",
"q 	c #6F6F6F",
"r 	c #353535",
"s 	c #595959",
"t 	c #767676",
"u 	c #444444",
"v 	c #020202",
"w 	c #474747",
"x 	c #858585",
"y 	c #ACACAC",
"z 	c #2C2C2C",
"A 	c #A1A1A1",
"B 	c #B5B5B5",
"C 	c #717171",
"D 	c #121212",
"E 	c #454545",
"F 	c #0D0D0D",
"G 	c #C8C8C8",
"H 	c #1D1D1D",
"I 	c #282828",
"J 	c #6B6B6B",
"K 	c #2B2B2B",
"L 	c #737373",
"M 	c #CDCDCD",
"N 	c #9C9C9C",
"O 	c #636363",
"P 	c #A3A3A3",
"Q 	c #8A8A8A",
"R 	c #606060",
"S 	c #1B1B1B",
"T 	c #070707",
"U 	c #484848",
"V 	c #BBBBBB",
"W 	c #494949",
"X 	c #515151",
"Y 	c #202020",
"Z 	c #333333",
"` 	c #3E3E3E",
" .	c #212121",
"                                            . + @ #   ",
"  $ $ $ $                                   # % & *   ",
"      $ $                           = - ; > , ' ) ! ~ ",
"      $ $                         { ] ^ / ( _ $ $ ; : ",
"      $ $                       < ' / [ > _ $ $ _ } | ",
"      $ $                     1 2 3 _ $ $ $ $ > 4 5 6 ",
"      $ $               7 8 9 0 _ $ $ $ $ $ $ a 5 b   ",
"      $ $             c d e f g $ $ $ $ $ $ _ h i     ",
"      $ $           . j k l m $ $ $ $ $ $ $ n o       ",
"  $ $ $ $ $ $     p q r o m _ $ $ $ $ $ $ $ ) s       ",
"                  t u > v $ $ $ $ $ $ $ $ $ w x       ",
"              y x z n _ $ $ $ $ $ $ $ $ $ $ - A       ",
"            B C k D v $ $ $ $ $ $ $ $ $ ( n u         ",
"          6 8 E g v $ $ $ $ $ $ $ $ $ $ F 4           ",
"        G { k H m _ $ $ $ $ $ $ $ $ $ $ I J           ",
"        + s l ( $ $ $ $ $ $ $ $ $ $ $ $ K L &         ",
"    M N 9 / m _ $ $ $ $ $ $ $ $ $ $ $ $ F 4 O P       ",
"    Q R S > $ $ $ $ $ $ $ $ $ $ $ $ $ $ v T U {       ",
"V y W [ m $ $ $ $ $ $ $ $ $ $ $ $ $ $ $ $ $ K X       ",
"< e Y > _ $ $ $ $ $ $ $ $ $ $ $ $ $ $ $ $ $ ; E       ",
"g g m $ $ $ $ $ $ $ $ $ $ $ $ $ $ $ $ $ $ $ S Z       ",
"v v _ $ $ $ $ $ $ $ $ $ $ $ $ $ $ $ $ $ $ $ g 3 ` -   ",
"$ $ $ $ $ $ $ $ $ $ $ $ $ $ $ $ $ $ $ $ $ $ $ g 1 `   ",
"$ $ $ $ $ $ $ _ _ $ $ $ $ $ $ $ $ $ $ $ $ $ _ m g  .5 "};
