/* XPM */
static char * magnify_cursor[] = {
"24 24 3 1",
" c None",
"B c Black",
"W c White",
"                        ",
"                        ",
"                        ",
"                        ",
"       BBBBBBWW         ",
"      BBWWWWBBWW        ",
"     BBWWWWWWBBWW       ",
"    BBWWWWWWWWBBW       ",
"    BWWWWWWWWWWBW       ",
"    BWWWWWWWWWWBW       ",
"    BWWWWWWWWWWBW       ",
"    BBWWWWWWWWBBW       ",
"     BBWWWWWWBBWW       ",
"      BBWWWWBBBW        ",
"       BBBBBBBBBW       ",
"              BBBW      ",
"               BBBW     ",
"                BBBW    ",
"                 BBW    ",
"                        ",
"                        ",
"                        ",
"                        ",
"                        "};
