/* XPM */
static char * trash_xpm[] = {
"29 22 168 2",
"  	c None",
". 	c #B71D1D",
"+ 	c #FFFFFF",
"@ 	c #717374",
"# 	c #171718",
"$ 	c #000000",
"% 	c #3F7996",
"& 	c #8EA8B4",
"* 	c #7E8082",
"= 	c #1B1D1E",
"- 	c #206283",
"; 	c #1E5572",
"> 	c #2E5D74",
", 	c #82969F",
"' 	c #979999",
") 	c #010203",
"! 	c #1E5E7E",
"~ 	c #1D546F",
"{ 	c #184C65",
"] 	c #1F3D4C",
"^ 	c #B6B9BB",
"/ 	c #0E1519",
"( 	c #9CA5AA",
"_ 	c #356279",
": 	c #206384",
"< 	c #264A5C",
"[ 	c #87949A",
"} 	c #909497",
"| 	c #273C47",
"1 	c #020506",
"2 	c #18262C",
"3 	c #848A8E",
"4 	c #8D989E",
"5 	c #8E9396",
"6 	c #243E4B",
"7 	c #1E5C7A",
"8 	c #247095",
"9 	c #030B0F",
"0 	c #1E5D7C",
"a 	c #224150",
"b 	c #1F5E7E",
"c 	c #2A7EA8",
"d 	c #2C85B2",
"e 	c #246B8F",
"f 	c #040B0F",
"g 	c #1C5673",
"h 	c #3194C4",
"i 	c #2C85B1",
"j 	c #1F5F7F",
"k 	c #253F4C",
"l 	c #7E8488",
"m 	c #7C8488",
"n 	c #788388",
"o 	c #1D3A49",
"p 	c #206181",
"q 	c #297DA7",
"r 	c #2E89B7",
"s 	c #2E8AB8",
"t 	c #2C86B3",
"u 	c #1E5A79",
"v 	c #010304",
"w 	c #164157",
"x 	c #3296C7",
"y 	c #3193C4",
"z 	c #2F8EBE",
"A 	c #2B81AD",
"B 	c #206282",
"C 	c #30637C",
"D 	c #2B6888",
"E 	c #2A7EA9",
"F 	c #2E8CBA",
"G 	c #194B65",
"H 	c #0C2633",
"I 	c #3092C2",
"J 	c #3090C1",
"K 	c #3090BF",
"L 	c #348CB9",
"M 	c #62A6C8",
"N 	c #4A9CC6",
"O 	c #2D89B7",
"P 	c #2A7DA8",
"Q 	c #164258",
"R 	c #03080B",
"S 	c #308FBF",
"T 	c #2E8BBA",
"U 	c #2E8AB9",
"V 	c #65ACD0",
"W 	c #4A9FCA",
"X 	c #2F8EBC",
"Y 	c #2C84B1",
"Z 	c #2B80AC",
"` 	c #2879A2",
" .	c #12384C",
"..	c #2D87B5",
"+.	c #2C86B4",
"@.	c #3287B3",
"#.	c #64AACC",
"$.	c #499CC5",
"%.	c #297CA6",
"&.	c #2878A0",
"*.	c #27759C",
"=.	c #0D2835",
"-.	c #040B0E",
";.	c #22678A",
">.	c #2B82AE",
",.	c #3184AE",
"'.	c #63A8CB",
").	c #4796BD",
"!.	c #2E85B1",
"~.	c #2A80AB",
"{.	c #2778A1",
"].	c #26759C",
"^.	c #257197",
"/.	c #081921",
"(.	c #1A4E69",
"_.	c #3080A8",
":.	c #62A5C7",
"<.	c #4794BB",
"[.	c #28789F",
"}.	c #26739A",
"|.	c #257095",
"1.	c #246E94",
"2.	c #040C10",
"3.	c #143E52",
"4.	c #287AA2",
"5.	c #2879A1",
"6.	c #2E7CA2",
"7.	c #62A4C5",
"8.	c #4590B5",
"9.	c #26749B",
"0.	c #246D92",
"a.	c #235B78",
"b.	c #27769E",
"c.	c #2D789E",
"d.	c #61A1C1",
"e.	c #448CB0",
"f.	c #226A8E",
"g.	c #21678A",
"h.	c #1C485F",
"i.	c #050E13",
"j.	c #246A8C",
"k.	c #256F94",
"l.	c #2B7296",
"m.	c #60A0C0",
"n.	c #4288AA",
"o.	c #27749A",
"p.	c #246E93",
"q.	c #22688C",
"r.	c #103243",
"s.	c #1A445A",
"t.	c #236B90",
"u.	c #2A7093",
"v.	c #609EBE",
"w.	c #4184A5",
"x.	c #236C90",
"y.	c #1B526E",
"z.	c #050F14",
"A.	c #030607",
"B.	c #0B212C",
"C.	c #1E5B7A",
"D.	c #286C8E",
"E.	c #5F9DBC",
"F.	c #4082A2",
"G.	c #226688",
"H.	c #0C2734",
"I.	c #133241",
"J.	c #345A6D",
"K.	c #204252",
"                            . . .                         ",
"            . . . . . . . . . + . @ # $                   ",
"          . + + + + + + + . + + . % & * = $               ",
"        . + + + + + + + + + + + . - ; > , ' )             ",
"      . + + + . . . . . + + + + . ! ~ { ] ^ /             ",
"    . + + + . ( _ : . + + + + + . ! < [ } | 1             ",
"  . . + + . 1 2 3 . + + + + + + . 4 5 6 7 8 9             ",
"  . + + + . $ 0 7 . . . . . . . . a b c d e f             ",
"  . + + .   $ g h i j k l m n o p q r s t u v             ",
"  . . .       w x y z A B C D E F z s t A G $             ",
"              H I J K z L M N I z O d A P Q $             ",
"              R S T U U L V W X O Y Z P `  .              ",
"              1 A ..+.+.@.#.$.O Y A %.&.*.=.$ $ $ $       ",
"              -.;.A >.Z ,.'.).!.~.P {.].^./.$ $ $ $ $     ",
"              v (.P E P _.:.<.Z %.[.}.|.1.2.$ $ $ $ $ $   ",
"              $ 3.4.4.5.6.7.8.%.[.9.|.0.a.1 $ $ $ $ $ $ $ ",
"                H b.].9.c.d.e.&.9.1.f.g.h.$ $ $ $ $ $ $ $ ",
"                i.j.^.k.l.m.n.o.p.f.q.r.) $ $ $ $ $ $ $ $ ",
"                v s.0.t.u.v.w.|.x.y.z.$ $ $ $ $ $ $ $ $ $ ",
"                  A.B.C.D.E.F.G.H.$ $ $ $ $ $ $ $ $ $ $   ",
"                      ) I.J.K.R $ $ $ $ $ $ $ $ $ $       ",
"                        $ $ $ $ $ $ $ $ $ $ $ $           "};
