/* XPM */
static char * unlock_trace_xpm[] = {
"27 24 6 1",
"  	c None",
". 	c #888888",
"$ 	c #000000",
"R 	c #FF0000",
"# 	c #949491",
"Y 	c #FFFF91",
"                           ",
"      $$                   ",
"     $$$                   ",
"    $$$$                   ",
"   $$ $$                   ",
"  $$  $$              $$RR ",
" $$$$$$$           RR...RR$",
"      $$         $.RR.....$",
"      $$        $........$ ",
"      $$      $..........$ ",
"             $..........$  ",
"            $...........$  ",
"           $...........$   ",
"         $.............$   ",
"        $..............$   ",
"       $..............$    ",
"     $..............RR     ",
"    $...............RR     ",
"   $..................$    ",
"  $...................$    ",
" RR....................$   ",
"RR......................$  ",
"........................RR ",
".........................RR"};
