/* XPM */
static char * add_database_xpm[] = {
"23 23 27 1",
" 	c None",
".	c #000000",
"+	c #D67D73",
"@	c #314529",
"#	c #CE928C",
"$	c #D68A7B",
"%	c #631029",
"&	c #C67573",
"*	c #D6968C",
"=	c #425531",
"-	c #CE8A84",
";	c #D69E8C",
">	c #526542",
",	c #CE827B",
"'	c #4A6139",
")	c #526942",
"!	c #5A7142",
"~	c #52794A",
"{	c #4A6942",
"]	c #739A6B",
"^	c #9CB694",
"/	c #638E5A",
"(	c #DEE3D6",
"_	c #63865A",
":	c #A5BEA5",
"<	c #8CAA84",
"[	c #425D39",
"                       ",
"                       ",
"      .      ....      ",
"     .+.    ...@..     ",
"    .#$%.  .   .@.     ",
"   .&#*%%.      .=.    ",
"  .&-#;%%%.     .>.    ",
" .&,-#;%%%%.  ..>>'..  ",
" .&,-#*%%%.    .)!).   ",
"  ..&,$%%.      .>.    ",
"    ..+%.        .     ",
"      ..               ",
"                ...    ",
"              ..~~{..  ",
"              .]^^]/.  ",
"             .~^(^]/{. ",
"             ._:^<//{. ",
"             .~]]//~[. ",
"              .~//~{.  ",
"              ..[{[..  ",
"                ...    ",
"                       ",
"                       "};
