/* XPM */
static char * flip_h_xpm[] = {
"32 16 95 2",
"  	c None",
". 	c #9B9B9B",
"+ 	c #B4B4B4",
"@ 	c #B9B9B9",
"# 	c #000000",
"$ 	c #707070",
"% 	c #FFFFFF",
"& 	c #101610",
"* 	c #0A1C0A",
"= 	c #1C1C1C",
"- 	c #252525",
"; 	c #333333",
"> 	c #353535",
", 	c #363636",
"' 	c #0F1C0F",
") 	c #163516",
"! 	c #263726",
"~ 	c #144214",
"{ 	c #436C43",
"] 	c #7D7474",
"^ 	c #844444",
"/ 	c #959191",
"( 	c #D9D9D9",
"_ 	c #E0E0E0",
": 	c #ADADAD",
"< 	c #1A1C1A",
"[ 	c #1C391C",
"} 	c #072207",
"| 	c #0F2C0F",
"1 	c #115C11",
"2 	c #385C38",
"3 	c #772A2A",
"4 	c #9C4D4D",
"5 	c #883232",
"6 	c #6A6A6A",
"7 	c #D7D7D7",
"8 	c #DDDDDD",
"9 	c #323232",
"0 	c #273727",
"a 	c #0E3A0E",
"b 	c #1C561C",
"c 	c #4A624A",
"d 	c #5F6A5F",
"e 	c #8C4747",
"f 	c #573E41",
"g 	c #815253",
"h 	c #764949",
"i 	c #D4D4D4",
"j 	c #C3C3C3",
"k 	c #3E3E3E",
"l 	c #818181",
"m 	c #858585",
"n 	c #7E5B3D",
"o 	c #A3A2A1",
"p 	c #7A7A7A",
"q 	c #876767",
"r 	c #3A4359",
"s 	c #503239",
"t 	c #974747",
"u 	c #B8B8B8",
"v 	c #F4F4F4",
"w 	c #FBFBFB",
"x 	c #161616",
"y 	c #7B7B7B",
"z 	c #BABABA",
"A 	c #876B53",
"B 	c #8A715B",
"C 	c #CFCFCF",
"D 	c #7C5E5E",
"E 	c #8E4242",
"F 	c #9C4343",
"G 	c #8E5050",
"H 	c #877777",
"I 	c #F9F9F9",
"J 	c #FEFEFE",
"K 	c #959595",
"L 	c #BEBEBE",
"M 	c #A4978B",
"N 	c #8E6643",
"O 	c #B1B0AF",
"P 	c #A7A7A7",
"Q 	c #8A6D6D",
"R 	c #9C9595",
"S 	c #C8C8C8",
"T 	c #AAAAAA",
"U 	c #666666",
"V 	c #B6B6B6",
"W 	c #A6A6A6",
"X 	c #AC9785",
"Y 	c #C6C2BF",
"Z 	c #424242",
"` 	c #080808",
" .	c #717171",
"..	c #9C9C9C",
"+.	c #5F5F5F",
"                                                                ",
"                              . + @                             ",
"                        # # # # # # # #                         ",
"                  $ # # % % % % % % % % # #                     ",
"                # # % % # # # # # # # # % % # #                 ",
"              # % % # # & # * = - ; > , # # % % #               ",
"            # % # # ' ) ! ~ { ] ^ / ( _ : # # # % #             ",
"  # #     # % #   < [ } | 1 2 3 4 5 6 7 8 9     # % #     # #   ",
"  # % # # % #     # 0 a b c d e f g h i j k #     # % # # % #   ",
"  # % % % #         l m n o p q r s t u v w x #     # % % % #   ",
"  # % % % #         y z A B C D E F G H I J K # #   # % % % #   ",
"  # % % % % #         L M N O P Q R S T U = #     # % % % % #   ",
"  # # # # # #         V W X Y j m Z ` # # #       # # # # # #   ",
"                       ...+.- # # # #                           ",
"                        # # #                                   ",
"                                                                "};
