/* XPM */
static char * ok_xpm[] = {
"23 18 72 1",
" 	c None",
"+	c #EFEBEF",
"@	c #ADAEAD",
"#	c #CECFCE",
"$	c #D6D3D6",
"%	c #BDBABD",
"&	c #E7E7E7",
"*	c #CECBCE",
"=	c #B5B6B5",
"-	c #E7E3E7",
";	c #B5B2B5",
">	c #DEDFDE",
",	c #C6C7C6",
"'	c #7B7D7B",
")	c #4A4D4A",
"!	c #9C9A9C",
"~	c #C6C3C6",
"]	c #ADAAAD",
"^	c #D6D7D6",
"/	c #BDBEBD",
"(	c #FFFFFF",
"_	c #A5A6A5",
":	c #A5A2A5",
"<	c #9C9E9C",
"[	c #949694",
"}	c #949294",
"|	c #8C8A8C",
"1	c #848284",
"2	c #737573",
"3	c #737173",
"4	c #525552",
"6	c #73A284",
"7	c #101008",
"8	c #B5C7AD",
"9	c #ADBAA5",
"0	c #9CAA94",
"a	c #94A28C",
"b	c #D6E7C6",
"c	c #7B8A73",
"d	c #000031",
"e	c #7B8673",
"f	c #63695A",
"g	c #848E7B",
"h	c #73796B",
"i	c #ADBA9C",
"j	c #525D52",
"k	c #5A5D52",
"l	c #6B7163",
"m	c #7B8273",
"n	c #94A68C",
"o	c #B5C3A5",
"p	c #9CA68C",
"q	c #737D6B",
"r	c #424939",
"s	c #8C9684",
"t	c #424539",
"u	c #5A6152",
"v	c #4A554A",
"w	c #949E84",
"x	c #394139",
"y	c #949E8C",
"z	c #52594A",
"A	c #393C31",
"B	c #4A5142",
"C	c #8C9A84",
"D	c #52554A",
"E	c #080C08",
"F	c #8C8E8C",
"G	c #848684",
"H	c #8C9294",
"I	c #8C8E94",
"J	c #7B797B",
"             7777777   ",
"             888900a7  ",
"            78b0aaac7  ",
"            788aaaac7  ",
"            78aaaaac7  ",
"        7   78a0aaac7  ",
"       7e   78aaaaac7  ",
"      78f77778aaagfh7  ",
"     78iejjjkfflmnok7  ",
"    78naaaannnnpaqr7   ",
"   78paaaaaaaaasft7    ",
"  780naaaaaaaagut7     ",
"   7vwaaaaaaaejx7      ",
"    7vyaaaaaezA7       ",
"     7BwCeelvA7        ",
"      7DvE7777         ",
"       7A7             ",
"        7              "};
