/* XPM */
static char * open_xpm[] = {
"28 22 5 1",
".	c None",
"+	c #000000",
"@	c #9C917B",
"#	c #FFFFF6",
"$	c #FFFFFF",
"............................",
"............................",
"............................",
"................++..........",
".............+++@@+.........",
"......++..+++@@@@##$+++.....",
".....+@@++@@@@####++@@+.....",
".....+@@@@@#####++@@@@+.....",
"......+@@#####++@@@@@@+.....",
"......+@@###++@@@@@@@@+.....",
".......+@##+@@@@@@@@@@+.....",
".......+@@#+@@@@@@@@@@+.....",
"........+@#+@@@@@@@@@@+.....",
"........+@@+@@@@@@@@++......",
".........+@+@@@@@@++........",
".........+@+@@@@@+..........",
"..........++@@@++...........",
"..........++@++.............",
"...........++...............",
"............................",
"............................",
"............................"};
