/* XPM */
/** open_hand.xpm **/
static char *open_hand[] = {
"24 24 3 1",
"  c none",
"W c White",
"B c Black",
"                        ",
"                        ",
"                        ",
"          WWWWW         ",
"        WWWBBBWWW       ",
"        WBBBWBBBW       ",
"        WBWBWBWBWWW     ",
"        WBWBWBWBBBW     ",
"     WWWWBWBWBWBWBW     ",
"     WBBBBWBWBWBWBW     ",
"     WBWBBWBWBWBWBW     ",
"     WBWBBWWWWWWWBW     ",
"     WBBWBWWWWWWWBW     ",
"     WWBWWWWWWWWBWW     ",
"      WBBWWWWWWWBW      ",
"      WWBBBWWWWBBW      ",
"       WWWBWWWWBWW      ",
"         WBWWWWBW       ",
"         WWWWWWWW       ",
"                        ",
"                        ",
"                        ",
"                        ",
"                        "};
