/* XPM */
static char * trace_xpm[] = {
"27 24 10 1",
" 	c None",
".	c #949491",
"+	c #000000",
"@	c #424240",
"#	c #F4F48A",
"$	c #FFFF91",
"%	c #313130",
"&	c #888888",
"*	c #FF0000",
"=	c #FFBBBB",
"                           ",
"       ...                 ",
"  ++++@#$$.                ",
" +   ++%$.$.               ",
"      ++.$$$.              ",
"      ++ .$$$.        &&&& ",
"     ++   .$$$.    &&&&&&&&",
"    ++      .++  &&&&&&&&&&",
"   ++        ++ **&&&&&&&& ",
"  ++          +&&&&&&&&&&& ",
" +++++++     **&&&&&&&&&&  ",
"            =&&&&&&&&&&&&  ",
"           **&&&&&&&&&&&   ",
"         =&&&&&&&&&&&&&&   ",
"        **&&&&&&&&&&&&&&   ",
"      =&&&&&&&&&&&&&&&&    ",
"     **&&&&&&&&&&&&&&&     ",
"    =&&&&&&&&&&&&&&&&&     ",
"   **&&&&&&&&&&&&&&&&&&    ",
"  =&&&&&&&&&&&&&&&&&&&&    ",
" **&&&&&&&&&&&&&&&&&&&&&   ",
"&&&&&&&&&&&&&&&&&&&&&&&&&  ",
"&&&&&&&&&&&&&&&&&&&&&&&&&& ",
"&&&&&&&&&&&&&&&&&&&&&&&&&&&"};
