/* XPM */
static char * brightness_button_xpm[] = {
"24 24 17 1",
" 	c None",
".	c #3D3D3D",
"+	c #2F2F2F",
"@	c #080808",
"#	c #4C4C4C",
"$	c #383838",
"%	c #0E0E0E",
"&	c #282828",
"*	c #454545",
"=	c #1A1A1A",
"-	c #050505",
";	c #1B1B1B",
">	c #595959",
",	c #BFBFBF",
"'	c #F4F4F4",
")	c #8C8C8C",
"!	c #FFFFFF",
"                        ",
"           .+           ",
"           @@           ",
"   #.      @@      $#   ",
"   $%%     +.     %%.   ",
"    %&            &%    ",
"         *=--=*         ",
"        ;>,'',>;        ",
"       ;)!!!!!!);       ",
"      *>!!!!!!!!>*      ",
"      =,!!!!!!!!,=      ",
" +@@. -'!!!!!!!!'- +@@. ",
" .@@+ -'!!!!!!!!'- .@@+ ",
"      =,!!!!!!!!,=      ",
"      *>!!!!!!!!>*      ",
"       ;)!!!!!!);       ",
"        ;>,'',>;        ",
"         *=--=*         ",
"    %&            &%    ",
"   .%%     .+     %%$   ",
"   #$      @@      .#   ",
"           @@           ",
"           +.           ",
"                        "};
