/* XPM */
static char * crop_button_xpm[] = {
"22 23 4 1",
" 	c None",
".	c #545454",
"+	c #808080",
"@	c #000000",
"                      ",
"                      ",
"    .+                ",
"    .+                ",
"  ..@@@@@@....        ",
"  ++@@@@@@++++        ",
"    @@@@@@            ",
"    @@@               ",
"    @@@         +.    ",
"    @@@         +.    ",
"    .+          +.    ",
"    .+          +.    ",
"    .+          +.    ",
"    .+         @@@    ",
"    .+         @@@    ",
"               @@@    ",
"            @@@@@@    ",
"        ++++@@@@@@++  ",
"        ....@@@@@@..  ",
"                +.    ",
"                +.    ",
"                      ",
"                      "};
