/* XPM */
static char * magic_wand_xpm[] = {
"22 22 5 1",
".	c None",
"+	c #FFFFFF",
"@	c #DEDADE",
"#	c #000000",
"$	c #949194",
"......................",
"......................",
".....+++..............",
"....+@#@++............",
"...+#+@+#+............",
"..++@#+#@++...........",
"..+#@+#+@#+...........",
"...++#@#+#............",
"...+#@+@#+#+..........",
"....++#.+#@#+.........",
"......++#@+@#+........",
"........+#@+@#+.......",
".........+#@$$#+......",
"..........+#$$$#+.....",
"...........+#$$$#+....",
"............+#$$$#+...",
".............+#$$$#+..",
"..............+#$$$#+.",
"...............+#$#+..",
"................+#+...",
".................+....",
"......................"};
