<?xml version="1.0" encoding="UTF-8" standalone="no"?>
<svg
   xmlns:dc="http://purl.org/dc/elements/1.1/"
   xmlns:cc="http://creativecommons.org/ns#"
   xmlns:rdf="http://www.w3.org/1999/02/22-rdf-syntax-ns#"
   xmlns:svg="http://www.w3.org/2000/svg"
   xmlns="http://www.w3.org/2000/svg"
   xmlns:xlink="http://www.w3.org/1999/xlink"
   xmlns:sodipodi="http://sodipodi.sourceforge.net/DTD/sodipodi-0.dtd"
   xmlns:inkscape="http://www.inkscape.org/namespaces/inkscape"
   inkscape:export-ydpi="135.69292"
   inkscape:export-xdpi="135.69292"
   inkscape:export-filename="C:\Users\adamr\Desktop\blah2.png"
   width="210mm"
   height="297mm"
   viewBox="0 0 210 297"
   version="1.1"
   id="svg8"
   inkscape:version="1.0rc1 (09960d6f05, 2020-04-09)"
   sodipodi:docname="bla1h.svg">
  <defs
     id="defs2">
    <linearGradient
       id="linearGradient886"
       inkscape:collect="always">
      <stop
         id="stop882"
         offset="0"
         style="stop-color:#0f77ab;stop-opacity:1;" />
      <stop
         id="stop884"
         offset="1"
         style="stop-color:#0f77ab;stop-opacity:0;" />
    </linearGradient>
    <linearGradient
       gradientUnits="userSpaceOnUse"
       y2="15.400628"
       x2="35.812489"
       y1="48.563816"
       x1="56.644192"
       id="linearGradient888"
       xlink:href="#linearGradient886"
       inkscape:collect="always" />
  </defs>
  <sodipodi:namedview
     id="base"
     pagecolor="#ffffff"
     bordercolor="#666666"
     borderopacity="1.0"
     inkscape:pageopacity="0.0"
     inkscape:pageshadow="2"
     inkscape:zoom="1.7791439"
     inkscape:cx="207.85969"
     inkscape:cy="193.82073"
     inkscape:document-units="mm"
     inkscape:current-layer="layer1"
     inkscape:document-rotation="0"
     showgrid="false"
     inkscape:window-width="1475"
     inkscape:window-height="1238"
     inkscape:window-x="907"
     inkscape:window-y="109"
     inkscape:window-maximized="0"
     showguides="false" />
  <metadata
     id="metadata5">
    <rdf:RDF>
      <cc:Work
         rdf:about="">
        <dc:format>image/svg+xml</dc:format>
        <dc:type
           rdf:resource="http://purl.org/dc/dcmitype/StillImage" />
        <dc:title></dc:title>
      </cc:Work>
    </rdf:RDF>
  </metadata>
  <g
     inkscape:label="Layer 1"
     inkscape:groupmode="layer"
     id="layer1">
    <path
       style="fill:#000000;stroke-width:0.214855"
       d="m 41.773758,272.32098 c 0.132824,-0.23239 0.477912,-0.68224 0.766862,-0.99967 0.537365,-0.59033 2.751594,-3.83251 2.751594,-4.02901 0,-0.0599 0.49868,-0.75793 1.108175,-1.5513 0.609495,-0.79336 1.290812,-1.85339 1.514035,-2.35561 0.223225,-0.50222 0.493641,-0.91313 0.600927,-0.91313 0.107285,0 0.258549,-0.3384 0.33614,-0.75199 0.0808,-0.43069 0.268557,-0.75199 0.439444,-0.75199 0.164104,0 0.298371,-0.0806 0.298371,-0.17905 0,-0.0985 0.287368,-0.46104 0.638595,-0.8057 0.351227,-0.34466 0.641281,-0.69478 0.644564,-0.77804 0.0033,-0.0833 0.223509,-0.37892 0.489391,-0.65703 0.497244,-0.52012 0.548522,-0.59328 1.692208,-2.41441 0.37106,-0.59085 0.842376,-1.31895 1.047368,-1.618 0.204995,-0.29905 0.592746,-0.97584 0.861668,-1.50398 0.268923,-0.52814 0.707693,-1.15362 0.975045,-1.38996 0.267352,-0.23634 0.848785,-0.91314 1.292071,-1.50399 0.443288,-0.59085 0.868732,-1.12261 0.945431,-1.1817 0.351433,-0.27072 1.726679,-2.23828 1.726679,-2.47035 0,-0.143 0.244459,-0.54001 0.543242,-0.88223 1.07351,-1.22959 2.986324,-3.69679 3.564055,-4.59704 0.18959,-0.29542 0.865789,-1.06898 1.502665,-1.71901 0.636876,-0.65004 1.323988,-1.42352 1.526914,-1.71884 1.096016,-1.59506 1.763576,-2.47272 3.304023,-4.34392 0.93411,-1.13467 2.353822,-2.96603 3.154911,-4.06969 0.80109,-1.10366 1.949453,-2.68344 2.551919,-3.51063 0.602465,-0.82719 1.49398,-1.95242 1.981146,-2.50051 0.487165,-0.54808 1.136681,-1.34211 1.443369,-1.7645 0.306686,-0.42239 1.007649,-1.26251 1.557696,-1.86692 0.550045,-0.60442 1.002213,-1.16397 1.004817,-1.24346 0.0026,-0.0795 0.441042,-0.62795 0.974305,-1.2188 2.862022,-3.17108 3.327816,-3.69005 3.682807,-4.10318 0.677785,-0.78879 3.376734,-3.79865 3.878622,-4.32542 0.265882,-0.27907 0.483423,-0.58901 0.483423,-0.68876 0,-0.16823 4.660657,-5.11399 5.747357,-6.09893 0.26588,-0.24098 0.48342,-0.5112 0.48342,-0.60047 0,-0.38533 4.192223,-4.69365 6.874863,-7.06525 2.82658,-2.49885 6.66098,-6.08171 6.66098,-6.22401 0,-0.0764 0.77332,-0.90684 1.7185,-1.8454 0.94517,-0.93856 1.71865,-1.82733 1.71883,-1.97504 l 6.01629,-4.13103 c 0.29763,-0.31139 1.62547,-1.15031 2.93659,-1.85533 0.80736,-0.43414 1.69851,-0.96888 1.98033,-1.18832 0.28182,-0.21945 0.59521,-0.39899 0.69642,-0.39899 0.18111,0 2.12671,-1.41732 2.33628,-1.70193 0.14537,-0.19741 2.33298,-1.52089 2.51392,-1.52089 0.0792,0 0.34367,-0.18409 0.58763,-0.40909 0.24395,-0.225 1.03937,-0.73259 1.7676,-1.12798 0.72822,-0.3954 2.05059,-1.12845 2.9386,-1.629 0.88802,-0.50056 2.1292,-1.11248 2.7582,-1.35982 0.62899,-0.24735 1.28885,-0.58039 1.46634,-0.7401 0.47376,-0.4263 2.99325,-1.51945 3.88763,-1.68675 0.42497,-0.0795 1.16961,-0.33631 1.65475,-0.57071 0.48514,-0.23439 1.01993,-0.42617 1.18842,-0.42617 0.16849,0 0.42194,-0.13927 0.56321,-0.30949 0.14128,-0.17023 0.92536,-0.56495 1.74241,-0.87716 1.30329,-0.49802 1.677,-0.55067 3.04598,-0.42916 2.36835,0.21021 4.4872,0.17154 4.74534,-0.0866 0.13025,-0.13025 1.03375,-0.22833 2.06829,-0.22454 1.56452,0.006 2.01229,0.0942 3.01871,0.59629 1.49939,0.74803 2.57825,1.54599 2.57825,1.90696 0,0.15434 0.43508,0.72195 0.96685,1.26136 1.00807,1.02255 1.03984,1.09229 0.96885,2.12698 -0.0233,1.54167 0.0357,1.51729 -0.44363,3.01816 -0.4956,1.29987 -1.09641,2.79848 -1.33513,3.33025 -1.10944,2.47134 -2.52034,6.02672 -2.52034,6.35111 0,0.40291 -0.77399,0.97324 -1.13353,0.83527 -0.23693,-0.0909 -0.35718,0.0186 -0.40707,0.37081 -0.11737,0.8285 -1.06373,0.77863 -1.92866,-0.10164 -2.437,-2.48023 -3.01899,-1.44487 -2.664,4.73923 0.15258,2.65806 -0.0923,3.34931 -1.30517,3.6842 -1.13858,0.31438 -2.09168,1.52629 -2.87354,3.65388 -0.37293,1.01484 -0.87329,2.32859 -1.1119,2.91944 -0.23861,0.59085 -0.50787,1.36432 -0.59836,1.71883 -0.15103,0.59168 -1.76169,3.77465 -2.18247,4.31295 -0.22965,0.2938 0.20084,0.73613 0.71644,0.73613 0.21524,0 0.49594,0.22956 0.62377,0.51013 0.19294,0.42345 0.11914,0.74236 -0.43431,1.87678 -0.36671,0.75166 -0.66675,1.48342 -0.66675,1.62614 0,0.14271 -0.189,0.57982 -0.42,0.97134 -0.33749,0.57201 -1.00717,3.31507 -1.13043,4.63036 -0.0138,0.14771 -0.0945,0.26856 -0.17917,0.26856 -0.0847,0 -0.20275,0.21754 -0.26234,0.48343 -0.0596,0.26588 -0.40709,1.63716 -0.77221,3.04728 -0.61122,2.36055 -0.64088,2.63315 -0.37404,3.43767 0.45055,1.35844 0.61143,2.48523 0.35482,2.48523 -0.12353,0 -0.22459,0.43689 -0.22459,0.97088 0,1.25016 -0.91924,3.88378 -1.52751,4.37633 -0.57103,0.46239 -0.43145,1.42296 0.23761,1.63531 0.81156,0.25758 1.07504,0.73604 1.07504,1.9522 0,0.6431 -0.11402,1.35184 -0.25337,1.57499 -0.20165,0.32288 -0.18385,0.51182 0.0872,0.92544 0.24012,0.36647 0.37578,1.26784 0.46004,3.05678 0.0884,1.87781 0.20738,2.63416 0.4577,2.91076 0.18601,0.20555 0.45627,0.95251 0.60057,1.65992 0.1443,0.7074 0.37476,1.42162 0.51213,1.58715 0.13738,0.16552 0.32095,0.59046 0.40795,0.94431 0.16268,0.66167 1.42806,2.03748 1.87907,2.04305 0.1393,0.002 0.78504,0.55553 1.43497,1.23068 0.64994,0.67515 1.33451,1.32636 1.52127,1.44713 0.18676,0.12078 0.67018,0.43376 1.07427,0.69551 0.40409,0.26176 0.97642,0.68229 1.27184,0.93451 1.06809,0.91188 3.54567,2.56761 4.71423,3.15044 0.65685,0.3276 1.24262,0.65754 1.3017,0.73319 3.0888,8.46994 -112.149407,24.74055 -118.895422,16.26427 z"
       id="path24"
       inkscape:connector-curvature="0"
       sodipodi:nodetypes="cssssssssssssssssssssssssssssssssssssssccssssssssssssssssscsssccssssssssssssssssssssssssssssssssscssssscc" />
    <circle
       r="23.130335"
       inkscape:export-ydpi="135.69292"
       inkscape:export-xdpi="135.69292"
       inkscape:export-filename="/Users/adamrussell/desktop/ar.png"
       style="fill:#ffffff;stroke:#0f77ab;stroke-width:1.6593;stroke-miterlimit:4;stroke-dasharray:none;stroke-opacity:1"
       id="path871-6"
       cx="58.125843"
       cy="52.560387" />
    <circle
       cx="58.348518"
       cy="52.430374"
       r="19.847546"
       inkscape:export-ydpi="135.69292"
       inkscape:export-xdpi="135.69292"
       inkscape:export-filename="/Users/adamrussell/desktop/ar.png"
       id="path871"
       style="fill:url(#linearGradient888);fill-opacity:1;stroke:#0f77ab;stroke-width:0.594592;stroke-opacity:1" />
    <path
       inkscape:export-ydpi="135.69292"
       inkscape:export-xdpi="135.69292"
       sodipodi:nodetypes="csssssssssssssssssssssssssssssssssccssssssssssssssssscsssccssssssssssssssssssssssssssssssssscsssssccc"
       inkscape:connector-curvature="0"
       id="path24-8"
       d="m 42.205356,62.981553 c 0.02692,0 0.06488,-0.08491 0.08434,-0.188695 0.02027,-0.108073 0.06739,-0.188695 0.110268,-0.188695 0.04118,0 0.07488,-0.02023 0.07488,-0.04492 0,-0.02471 0.07211,-0.115688 0.16024,-0.202172 0.08815,-0.08649 0.160916,-0.174341 0.161739,-0.195233 8.28e-4,-0.02091 0.05609,-0.09508 0.122802,-0.164867 0.124772,-0.130511 0.137639,-0.148869 0.424621,-0.605841 0.09311,-0.14826 0.211374,-0.330962 0.262813,-0.406 0.05144,-0.07505 0.148738,-0.244865 0.216216,-0.377391 0.06747,-0.132525 0.17758,-0.289473 0.244667,-0.348779 0.06708,-0.0593 0.212981,-0.229131 0.324215,-0.377392 0.111233,-0.14826 0.217988,-0.281693 0.237235,-0.296521 0.08819,-0.06793 0.433269,-0.561644 0.433269,-0.619877 0,-0.03587 0.06135,-0.135505 0.136316,-0.221376 0.269373,-0.308538 0.74935,-0.927626 0.894318,-1.153524 0.04758,-0.07413 0.21725,-0.268237 0.37706,-0.431346 0.159811,-0.163113 0.332226,-0.3572 0.383146,-0.431304 0.275019,-0.400246 0.442529,-0.620474 0.82907,-1.09001 0.234393,-0.284719 0.590637,-0.744257 0.791653,-1.021196 0.201015,-0.276937 0.489172,-0.673349 0.640347,-0.880913 0.151173,-0.207564 0.37488,-0.489917 0.497123,-0.627445 0.122242,-0.13753 0.285226,-0.336773 0.362181,-0.442763 0.07694,-0.105988 0.252847,-0.316798 0.390868,-0.468462 0.138022,-0.151664 0.251483,-0.292072 0.252136,-0.312017 6.53e-4,-0.01995 0.110671,-0.15757 0.24448,-0.305831 0.71816,-0.79571 0.835041,-0.925933 0.924118,-1.029599 0.170074,-0.197931 0.847314,-0.953187 0.973252,-1.085369 0.06671,-0.07001 0.121304,-0.147797 0.121304,-0.172826 0,-0.04223 1.169485,-1.283241 1.442168,-1.530389 0.06671,-0.06047 0.121304,-0.128275 0.121304,-0.150675 0,-0.09669 1.051945,-1.177766 1.725093,-1.772865 0.709267,-0.627031 1.671423,-1.526069 1.671423,-1.561776 0,-0.01917 0.194046,-0.22755 0.431217,-0.463062 0.23717,-0.23551 0.431258,-0.458526 0.431304,-0.495591 l 1.509646,-1.036588 c 0.07468,-0.07814 0.407874,-0.288646 0.736872,-0.465554 0.202589,-0.108938 0.426202,-0.243118 0.496919,-0.298183 0.07072,-0.05507 0.149354,-0.100117 0.17475,-0.100117 0.04545,0 0.53365,-0.355643 0.586238,-0.427059 0.03647,-0.04954 0.585408,-0.381635 0.630811,-0.381635 0.01987,0 0.08623,-0.04619 0.147453,-0.102653 0.06121,-0.05645 0.260807,-0.183826 0.443539,-0.28304 0.18273,-0.09922 0.514547,-0.283158 0.737374,-0.408762 0.222829,-0.125605 0.534275,-0.279152 0.692107,-0.341216 0.157832,-0.06205 0.323409,-0.145636 0.367947,-0.185711 0.118879,-0.10697 0.751084,-0.381272 0.97551,-0.423251 0.106635,-0.01994 0.293487,-0.08439 0.415222,-0.143208 0.121735,-0.05881 0.255928,-0.106938 0.298207,-0.106938 0.04227,0 0.105876,-0.03495 0.141323,-0.07766 0.03545,-0.04272 0.232201,-0.141761 0.43722,-0.220101 0.327031,-0.124968 0.420806,-0.13818 0.764321,-0.107689 0.594282,0.05273 1.125961,0.04305 1.190735,-0.02173 0.03267,-0.03268 0.259395,-0.05729 0.518991,-0.05634 0.392581,0.0014 0.504938,0.02363 0.757476,0.149625 0.376238,0.1877 0.646954,0.387931 0.646954,0.478507 0,0.03872 0.109174,0.181158 0.242608,0.31651 0.252954,0.256586 0.260926,0.274085 0.243112,0.533718 -0.0058,0.386848 0.009,0.380728 -0.111319,0.757339 -0.12436,0.326173 -0.275119,0.702215 -0.33502,0.835651 -0.278389,0.620127 -0.632423,1.51227 -0.632423,1.593668 0,0.101101 -0.194215,0.244212 -0.284435,0.209592 -0.05945,-0.02282 -0.08962,0.0046 -0.102145,0.09304 -0.02945,0.207893 -0.26692,0.195379 -0.483954,-0.02551 -0.61151,-0.622356 -0.757547,-0.362557 -0.66847,1.189204 0.0383,0.66698 -0.02316,0.840432 -0.327504,0.924465 -0.285702,0.07889 -0.52486,0.382989 -0.721049,0.91686 -0.09359,0.25465 -0.219133,0.584306 -0.279007,0.732567 -0.05987,0.148261 -0.127437,0.342346 -0.150146,0.431302 -0.03789,0.148469 -0.442055,0.947162 -0.547641,1.082237 -0.05762,0.07371 0.05039,0.184716 0.179775,0.184716 0.05401,0 0.124445,0.05761 0.156521,0.128005 0.04841,0.106256 0.0299,0.186277 -0.10898,0.470936 -0.09202,0.188611 -0.167306,0.372232 -0.167306,0.408043 0,0.03582 -0.04744,0.145492 -0.105388,0.243735 -0.08469,0.143534 -0.252728,0.831842 -0.283657,1.161885 -0.0034,0.03705 -0.0237,0.06739 -0.04497,0.06739 -0.02125,0 -0.05088,0.05459 -0.06582,0.121305 -0.01494,0.06671 -0.102145,0.410808 -0.193769,0.764647 -0.153371,0.592325 -0.160814,0.660728 -0.09385,0.862604 0.113055,0.34087 0.153424,0.623612 0.08905,0.623612 -0.03101,0 -0.05634,0.109628 -0.05634,0.243621 0,0.313701 -0.230663,0.974548 -0.383295,1.098141 -0.143287,0.116026 -0.108264,0.35706 0.05962,0.410345 0.203643,0.06462 0.269757,0.18469 0.269757,0.489859 0,0.161373 -0.0286,0.339215 -0.06358,0.395209 -0.05059,0.081 -0.04614,0.12843 0.02188,0.232218 0.06026,0.09195 0.09429,0.318137 0.115436,0.76703 0.02218,0.471194 0.05204,0.660984 0.11485,0.73039 0.04667,0.05158 0.114491,0.239011 0.150699,0.416519 0.03621,0.177507 0.09404,0.356723 0.128506,0.398259 0.03447,0.04153 0.08054,0.148163 0.102363,0.236954 0.04082,0.16603 0.35834,0.511258 0.471511,0.512656 0.03495,5.02e-4 0.196989,0.139398 0.360074,0.308811 0.163087,0.169415 0.334864,0.33282 0.381728,0.363126 0.04686,0.03031 0.168167,0.108841 0.269563,0.174522 0.101402,0.06568 0.245011,0.171205 0.319142,0.234494 0.268011,0.228817 0.889704,0.644284 1.182928,0.790531 0.164822,0.0822 0.756593,1.33256 0.771418,1.351543 -2.252915,3.167495 -28.48856,2.550133 -28.587267,0.442263 z"
       style="fill:#ffffff;stroke:#0f77ab;stroke-width:0.154;stroke-miterlimit:4;stroke-dasharray:none;stroke-opacity:1;fill-opacity:1" />
  </g>
</svg>
