/* XPM */
/** grip.xpm **/
static char *grip[] = {
"24 24 3 1",
"  c none",
"W c White",
"B c Black",
"                        ",
"                        ",
"                        ",
"                        ",
"                        ",
"          WWWWW         ",
"         WWBBBWWW       ",
"        WWBBWBBBWW      ",
"        WBWBWBWBBWW     ",
"      WWWBWBWBWBWBW     ",
"     WWBBBWBWBWBWBW     ",
"     WBWBBWWWWWWWBW     ",
"     WBBWBWWWWWWWBW     ",
"     WWBWWWWWWWWBWW     ",
"      WBBWWWWWWWBW      ",
"      WWBBBWWWWBBW      ",
"       WWWBWWWWBWW      ",
"         WBWWWWBW       ",
"         WWWWWWWW       ",
"                        ",
"                        ",
"                        ",
"                        ",
"                        "};
