/* XPM */
static char * matching_queue_xpm[] = {
"26 26 8 1",
".	c None",
"+	c #7F7F7F",
"@	c #000000",
"#	c #0A0A0A",
"$	c #050505",
"%	c #848484",
"&	c #010101",
"*	c #808080",
"..........................",
"..............++..........",
"............++@@+.........",
"...........+@@@+..........",
"..........+@@@+...........",
".........+@@@+............",
"........+@@@+...++........",
".......+@@@+..++@@+.......",
"......+@@@+..+@@@+........",
"....++@@@+..+@@@+.........",
"...+#@@@+..+@@@+..........",
"..+$@@@+..+@@@+...++......",
"..+@@@+..+@@@+..++@@+.....",
"...+++..+@@@+..+@@@+......",
"......++@@@+..+@@@@+......",
"....%+#@@@+..+@@@@+.......",
"....+$@@@+..+@@@@@+.......",
"....+@@@+..+@@@@@@+.......",
".....+++..+@@@@@@@+.......",
"........++@@@@@@@@@.......",
".......+#@@@@@@@@@@+......",
"......+$@@@@@@@@@@@@......",
"......+@@@@@@@@@@@@&&.....",
".......++++*++++++++*.....",
"..........................",
".........................."};
