/* XPM */
static char * options_small_xpm[] = {
"16 14 90 1",
" 	c None",
".	c #1B1B1B",
"+	c #181818",
"@	c #5D5E5D",
"#	c #B9B9B9",
"$	c #8B8B8B",
"%	c #453F2E",
"&	c #303030",
"*	c #545454",
"=	c #BABABA",
"-	c #DDDDDD",
";	c #E2E2E2",
">	c #D0D0D0",
",	c #3B3B3B",
"'	c #46402E",
")	c #948657",
"!	c #1C190F",
"~	c #464646",
"{	c #8A8A8A",
"]	c #E0E1E0",
"^	c #DFD6D6",
"/	c #D8C5C5",
"(	c #DBDBDB",
"_	c #D4D3D4",
":	c #C3C4C3",
"<	c #6B6B6B",
"[	c #46402F",
"}	c #958758",
"|	c #2B2714",
"1	c #4F4F4F",
"2	c #D6D6D6",
"3	c #E8E8E8",
"4	c #DDC9C9",
"5	c #B48E8D",
"6	c #BDBDBD",
"7	c #ABABAB",
"8	c #CACACA",
"9	c #6A6557",
"0	c #958757",
"a	c #2D2916",
"b	c #B1AFAF",
"c	c #D4B2B2",
"d	c #CB9B9B",
"e	c #CCAEAD",
"f	c #C9CAC9",
"g	c #E6E6E6",
"h	c #686457",
"i	c #998A5A",
"j	c #282413",
"k	c #292929",
"l	c #E5E1E0",
"m	c #C39495",
"n	c #D4BEBE",
"o	c #CECECE",
"p	c #666255",
"q	c #9B8C5B",
"r	c #353223",
"s	c #DADBDA",
"t	c #B5B5B3",
"u	c #232221",
"v	c #909090",
"w	c #EBEBEC",
"x	c #958553",
"y	c #494128",
"z	c #545244",
"A	c #9D9E96",
"B	c #B4B5AE",
"C	c #A9A8A1",
"D	c #3E3D38",
"E	c #4E4E4E",
"F	c #CFD0CF",
"G	c #BABFBC",
"H	c #484B46",
"I	c #98968F",
"J	c #BEBCB3",
"K	c #C0C0BA",
"L	c #797A73",
"M	c #616060",
"N	c #A5A5A5",
"O	c #D7D7D5",
"P	c #D6D6D5",
"Q	c #E2E2E1",
"R	c #D6D5D4",
"S	c #A8A7A8",
"T	c #383838",
"U	c #E4E4E4",
"V	c #DDDCDD",
"W	c #535353",
"X	c #767676",
"Y	c #3D3D3D",
"                ",
"       .+       ",
"      @#$   %   ",
"   &*=-;>, ')!  ",
" ~{]^/(_:<[}|   ",
" 1234567890a    ",
"  bcdefghij     ",
"  klmnopqrstu   ",
"   vgwxyzABCD   ",
"   EFGHIJKLM    ",
"    NOPQRS      ",
"    TUgVW       ",
"     XY.        ",
"                "};
