/* XPM */
static char * question_xpm[] = {
"48 48 11 1",
" 	c None",
".	c #FFFFFF",
"+	c #BF2626",
"@	c #000000",
"#	c #2B3D61",
"$	c #354564",
"%	c #7F7F7F",
"&	c #AAAAAA",
"*	c #737579",
"=	c #636363",
"-	c #727272",
"                                                ",
"                                                ",
"                                                ",
"                                                ",
"                                                ",
"                                                ",
"                                                ",
"                                                ",
"                  ..........                    ",
"                 ...++++++....                  ",
"                ..++++++++++...                 ",
"               ..+++++++++++++..                ",
"              ..++++++++++++++...               ",
"              .+++++....+++++++...              ",
"             ..++++..@#@.++++++...              ",
"             .++++..@$%%.++++++...@             ",
"             .++++..$%@@.++++++...&@            ",
"             .++++..*@@ .++++++...&@            ",
"             .+++...%@ ..+++++...%&@            ",
"             .......@@ .++++++...%&@            ",
"             .......%@..+++++....%@             ",
"              ..=&%%%..+++++....%&@             ",
"               .*%%%...+++++....%@              ",
"                    ..+++++....&&@              ",
"                    .++++++...%&@               ",
"                    .+++++...*@@                ",
"                    .+++++...%@                 ",
"                    .+++++..&&@                 ",
"                    .++++...-@                  ",
"                    .++++...&@                  ",
"                    .......%&@                  ",
"                    .......%@                   ",
"                     ..*=%%&@                   ",
"                     .......                    ",
"                    .++++...                    ",
"                    .++++...                    ",
"                    .++++...&@                  ",
"                    .++++...&@                  ",
"                    .++++...&@                  ",
"                     .......&@                  ",
"                     ......%&@                  ",
"                      ....%%&@                  ",
"                       .%%%&@                   ",
"                                                ",
"                                                ",
"                                                ",
"                                                ",
"                                                "};
