/* XPM */
static char * view_icons_xpm[] = {
"24 24 15 1",
" 	c None",
".	c #000000",
"+	c #A59A7B",
"@	c #EFEBDE",
"#	c #F7EFE7",
"$	c #CEC7AD",
"%	c #E7DBBD",
"&	c #EFE7D6",
"*	c #C6BA94",
"=	c #C6B694",
"-	c #ADA684",
";	c #9C967B",
">	c #BDB28C",
",	c #9C9273",
"'	c #8C866B",
"                        ",
"                        ",
"                        ",
"                        ",
"    ...        ...      ",
"   .+++...    .+++...   ",
"   .@##@$%.   .@##@$%.  ",
"   .&**=--.   .&**=--.  ",
"   .&*=--;.   .&*=--;.  ",
"   .&>--,'.   .&>--,'.  ",
"    ......     ......   ",
"                        ",
"                        ",
"    ...        ...      ",
"   .+++...    .+++...   ",
"   .@##@$%.   .@##@$%.  ",
"   .&**=--.   .&**=--.  ",
"   .&*=--;.   .&*=--;.  ",
"   .&>--,'.   .&>--,'.  ",
"    ......     ......   ",
"                        ",
"                        ",
"                        ",
"                        "};
