/* XPM */
static char * about_small_xpm[] = {
"16 14 144 2",
"  	c None",
". 	c #737173",
"+ 	c #6B6D6B",
"@ 	c #6B696B",
"# 	c #636563",
"$ 	c #636163",
"% 	c #525152",
"& 	c #000000",
"* 	c #5A5D5A",
"= 	c #5A595A",
"- 	c #9C9A9C",
"; 	c #313031",
"> 	c #080C08",
", 	c #525552",
"' 	c #DEDFDE",
") 	c #4A4D4A",
"! 	c #4A494A",
"~ 	c #424542",
"{ 	c #424142",
"] 	c #393C39",
"^ 	c #393839",
"/ 	c #313431",
"( 	c #FFFFFF",
"_ 	c #FFA2A5",
": 	c #181C18",
"< 	c #292C29",
"[ 	c #737573",
"} 	c #9C9E9C",
"| 	c #101410",
"1 	c #212421",
"2 	c #000400",
"3 	c #292829",
"4 	c #212021",
"5 	c #080808",
"6 	c #181818",
"7 	c #949694",
"8 	c #101010",
"9 	c #848284",
"0 	c #949294",
"a 	c #8C8A8C",
"b 	c #7B7D7B",
"c 	c #848684",
"d 	c #7B797B",
"e 	c #8C8E8C",
"f 	c #A5BEA5",
"g 	c #F7F7EF",
"h 	c #EFF3EF",
"i 	c #E7EBE7",
"j 	c #CEDBCE",
"k 	c #F7F7F7",
"l 	c #D6DFD6",
"m 	c #C6D7C6",
"n 	c #ADC3AD",
"o 	c #BDCFBD",
"p 	c #E7EFE7",
"q 	c #212C18",
"r 	c #638A5A",
"s 	c #8CAE84",
"t 	c #94B694",
"u 	c #BDCFB5",
"v 	c #8CAE8C",
"w 	c #ADAAAD",
"x 	c #C6C7C6",
"y 	c #73796B",
"z 	c #081008",
"A 	c #848A84",
"B 	c #D6DBD6",
"C 	c #BDC3B5",
"D 	c #6B7963",
"E 	c #F7F3F7",
"F 	c #CED3CE",
"G 	c #CECFC6",
"H 	c #C6CBBD",
"I 	c #6B7563",
"J 	c #DEE3DE",
"K 	c #C6CFC6",
"L 	c #B5BAAD",
"M 	c #5A6552",
"N 	c #DEDFD6",
"O 	c #ADB2A5",
"P 	c #212821",
"Q 	c #CED3C6",
"R 	c #73756B",
"S 	c #181810",
"T 	c #4A5142",
"U 	c #425142",
"V 	c #C6C3C6",
"W 	c #E7E3E7",
"X 	c #CECFCE",
"Y 	c #E7E7E7",
"Z 	c #EFEFEF",
" .	c #DEDBDE",
"..	c #CECBCE",
"+.	c #D6D3D6",
"@.	c #B5B6B5",
"#.	c #BDBEBD",
"$.	c #BDBABD",
"%.	c #A5A2A5",
"&.	c #A5A6A5",
"*.	c #FFFBF7",
"=.	c #EFEBE7",
"-.	c #E7E3DE",
";.	c #4A4942",
">.	c #F7E7D6",
",.	c #E7CB94",
"'.	c #DEAE63",
").	c #E7B652",
"!.	c #E7CBA5",
"~.	c #C6C3BD",
"{.	c #52514A",
"].	c #D6CBC6",
"^.	c #E7BA4A",
"/.	c #DEAE42",
"(.	c #C68639",
"_.	c #C6A68C",
":.	c #DEDBD6",
"<.	c #C67D39",
"[.	c #A56552",
"}.	c #D6D3CE",
"|.	c #D6A642",
"1.	c #AD5D31",
"2.	c #9C5D4A",
"3.	c #DECFCE",
"4.	c #F7EFEF",
"5.	c #C6924A",
"6.	c #B57131",
"7.	c #A54D29",
"8.	c #943829",
"9.	c #A5867B",
"0.	c #ADA6A5",
"a.	c #5A5952",
"b.	c #312C29",
"c.	c #E7DBCE",
"d.	c #BD9273",
"e.	c #9C5542",
"f.	c #AD8E8C",
"g.	c #A59E94",
"h.	c #BDB6B5",
"i.	c #7B756B",
"j.	c #393831",
"k.	c #292821",
"l.	c #8C8684",
"m.	c #BDBAB5",
"n.	c #423C39",
"                                ",
"            ( ( (   *.=.        ",
"    *.*.( *.*.E ( *.*.-.;.      ",
"    -.*.>.,.'.).'.!.=.~.{.      ",
"    7 ].).).^.)./.(._.-.:.:.    ",
"=.*.( ,.^.^.^.)./.<.[.}.( *.>   ",
"}.=.( !.|./.^./.(.1.2.3.=.].>   ",
"  & :.4.5.<.<.6.7.8.9.0.a.b.>   ",
"    4.*.c.d.e.e.2.f.}.g.S       ",
"    *.( =.h.i.h.:.=.*...j.      ",
"    }.:.7 k.S l.4.*.4.m.j.      ",
"    ;.j.S S     i.7 l.n.b.      ",
"                  > > S         ",
"                                "};
