/* XPM */
static char * addpoint_xpm[] = {
"20 20 4 1",
" 	c None",
".	c #000000",
"R	c #FF0000",
"*	c #909090",
"                    ",
"                    ",
"         ..         ",
"        ....        ",
"        ....        ",
"        ....        ",
"         ..         ",
"                    ",
"         RR         ",
"         RR         ",
"         RR         ",
"      RRRRRRRR      ",
"       RRRRRR       ",
"   ..   RRRR   ..   ",
"  ....   RR   ....  ",
"  ....********....  ",
"  ....********....  ",
"   ..          ..   ",
"                    ",
"                    "};
