/* XPM */
static char * autotrace_xpm[] = {
"22 22 7 1",
" 	c None",
".	c #909090",
"+	c #000000",
"@	c #4B4B4B",
"#	c #898989",
"$	c #111111",
"%	c #262626",
"                      ",
"               .....  ",
"             ..+++..  ",
"            .++@ @+.  ",
"           .+@  .+.   ",
"          .+@   .+.   ",
"         .+@    .+.   ",
"        .+@    .+.    ",
"       #+@     .+.    ",
"    + .+@      .+.    ",
"  + +.+@       .+.    ",
"   +.+@        .+.    ",
" ++.$@++       .+.    ",
"  .+ +         .+.    ",
" .+@+ +        .+.    ",
".+@ +          .+.    ",
"%@              .+.   ",
"+                .+.  ",
"                 .+.  ",
"                 .+.  ",
"                  .+. ",
"                      "};
