/* XPM */
static char * cancel_xpm[] = {
"22 16 81 1",
" 	c None",
".	c #000000",
"+	c #EFEBEF",
"@	c #ADAEAD",
"#	c #CECFCE",
"$	c #D6D3D6",
"%	c #BDBABD",
"&	c #E7E7E7",
"*	c #CECBCE",
"=	c #B5B6B5",
"-	c #E7E3E7",
";	c #B5B2B5",
">	c #DEDFDE",
",	c #C6C7C6",
"'	c #7B7D7B",
")	c #4A4D4A",
"!	c #9C9A9C",
"~	c #C6C3C6",
"]	c #ADAAAD",
"^	c #D6D7D6",
"/	c #BDBEBD",
"(	c #FFFFFF",
"_	c #A5A6A5",
":	c #A5A2A5",
"<	c #9C9E9C",
"[	c #949694",
"}	c #949294",
"|	c #8C8A8C",
"1	c #848284",
"2	c #737573",
"3	c #737173",
"4	c #525552",
"6	c #000031",
"7	c #31659C",
"8	c #9CCFFF",
"9	c #639ACE",
"0	c #101008",
"a	c #B5C7AD",
"b	c #ADBAA5",
"c	c #9CAA94",
"d	c #94A28C",
"e	c #D6E7C6",
"f	c #7B8A73",
"g	c #C66D73",
"h	c #9C3C42",
"i	c #B5454A",
"j	c #BD5963",
"k	c #7B2C31",
"l	c #7B8673",
"m	c #8C3439",
"n	c #63695A",
"o	c #848E7B",
"p	c #73796B",
"q	c #ADBA9C",
"r	c #525D52",
"s	c #5A5D52",
"t	c #6B7163",
"u	c #7B8273",
"v	c #94A68C",
"w	c #B5C3A5",
"x	c #9CA68C",
"y	c #737D6B",
"z	c #424939",
"A	c #8C9684",
"B	c #424539",
"C	c #5A6152",
"D	c #4A554A",
"E	c #949E84",
"F	c #394139",
"G	c #949E8C",
"H	c #52594A",
"I	c #393C31",
"J	c #4A5142",
"K	c #8C9A84",
"L	c #52554A",
"M	c #080C08",
"N	c #8C8E8C",
"O	c #848684",
"P	c #8C9294",
"Q	c #8C8E94",
"R	c #7B797B",
"                      ",
"        ..      .     ",
"       .gh.    .i.    ",
"       .ii.   .ji.    ",
"        .ih. .jik.    ",
"        .ii..jim.     ",
"         .iiiih.      ",
"         .iiii.       ",
"        .jiii.        ",
"       .jiiii.        ",
"      .jim..im.       ",
"     .gim. .hi.       ",
"     .im.   .ih.      ",
"      ..    .hi.      ",
"             ..       ",
"                      "};
