/* XPM */
static char * contrast_button_xpm[] = {
"24 24 15 1",
" 	c None",
".	c #B2B2B2",
"+	c #5D5D5D",
"@	c #242424",
"#	c #060606",
"$	c #CECECE",
"%	c #404040",
"&	c #373737",
"*	c #979797",
"=	c #D7D7D7",
"-	c #F8F8F8",
";	c #000000",
">	c #070707",
",	c #FFFFFF",
"'	c #B7B7B7",
"                        ",
"                        ",
"                        ",
"        .+@##@+.        ",
"      $%&*=-;;;;%$      ",
"     .>*,,,,;;;;;>.     ",
"    $>',,,,,;;;;;;>$    ",
"    %*,,,,,,;;;;;;;%    ",
"   .&,,,,,,,;;;;;;;;.   ",
"   +*,,,,,,,;;;;;;;;+   ",
"   @=,,,,,,,;;;;;;;;@   ",
"   #-,,,,,,,;;;;;;;;#   ",
"   #-,,,,,,,;;;;;;;;#   ",
"   @=,,,,,,,;;;;;;;;@   ",
"   +*,,,,,,,;;;;;;;;+   ",
"   .&,,,,,,,;;;;;;;;.   ",
"    %*,,,,,,;;;;;;;%    ",
"    $>',,,,,;;;;;;>$    ",
"     .>*,,,,;;;;;>.     ",
"      $%&*=-;;;;%$      ",
"        .+@##@+.        ",
"                        ",
"                        ",
"                        "};
