/* XPM */
static char *eraser_cursor[] = {
"24 24 3 1",
"  c None",
"B c Black",
"W c White",
"                        ",
"                        ",
"                        ",
"                        ",
"                        ",
"           WWWWWWWWWW   ",
"          WWBBBBBBBBW   ",
"         WWBWWWWWWBBW   ",
"        WWBWWWWWWBWBW   ",
"       WWBWWWWWWBWWBW   ",
"      WWBWWWWWWBWWBWW   ",
"     WWBWWWWWWBWWBWW    ",
"    WWBWWWWWWBWWBWW     ",
"    WBBBBBBBBWWBWW      ",
"    WBWWWWWWBWBWW       ",
"    WBWWWWWWBBWW        ",
"    WBBBBBBBBWW         ",
"    WWWWWWWWWW          ",
"                        ",
"                        ",
"                        ",
"                        ",
"                        ",
"                        "};
