/* XPM */
static char * exit_xpm[] = {
"28 22 13 1",
".	c None",
"+	c #000000",
"@	c #E6E6DE",
"#	c #BD757B",
"$	c #C57D83",
"%	c #292C29",
"&	c #8B4C4A",
"*	c #9C555A",
"=	c #A45D5A",
"-	c #AC656A",
";	c #B46D73",
">	c #CD858B",
",	c #080808",
"............................",
"............................",
"............................",
"...........+++++++++........",
"...........+@@@@@@++........",
"...........+@@@@@@++........",
".........+++@@@@@@++........",
".........+#+@@@@@@++........",
"....++++++#$+@@%+@++........",
"....+&*=-;#$>+@+%@++........",
"....+&*=-;#$>+@@@@++........",
"....++++++#$+@@@@@++........",
".........+#+@@@@@@++........",
".........+++@@@@@@++........",
"...........+@@@@++++........",
"...........+@@++++++........",
"...........+++,,,,,,........",
"............................",
"............................",
"............................",
"............................",
"............................"};
