/* XPM */
static char * exit_small_xpm[] = {
"16 14 39 1",
" 	c None",
".	c #20201F",
"+	c #696965",
"@	c #3C3C3A",
"#	c #000000",
"$	c #464643",
"%	c #E6E6DE",
"&	c #83837F",
"*	c #3B2426",
"=	c #494644",
"-	c #211212",
";	c #301B1B",
">	c #331E1F",
",	c #815054",
"'	c #976266",
")	c #87807D",
"!	c #A5A59F",
"~	c #323431",
"{	c #703D3C",
"]	c #A0595A",
"^	c #AD666A",
"/	c #B97278",
"(	c #C77F85",
"_	c #493032",
":	c #C8C8C1",
"<	c #A2A39D",
"[	c #6C4346",
"}	c #765355",
"|	c #B2B2AC",
"1	c #201415",
"2	c #464442",
"3	c #D7D7D0",
"4	c #777773",
"5	c #474744",
"6	c #7D7D79",
"7	c #242423",
"8	c #10100F",
"9	c #333331",
"0	c #060606",
"                ",
"                ",
"     .+++@#     ",
"     $%%%&#     ",
"    *=%%%&#     ",
" -;>,')!~&#     ",
" {]^/(_:<&#     ",
" ###[}|%%&#     ",
"    12%%34#     ",
"     5%67##     ",
"     890000     ",
"                ",
"                ",
"                "};
