/* XPM */
static char * fin_xpm[] = {
"16 14 65 1",
" 	c None",
"+	c #FEFEFE",
"@	c #FDFDFD",
"#	c #DDDDDD",
"$	c #A0A0A0",
"%	c #898989",
"&	c #D5D5D5",
"*	c #F4F4F4",
"=	c #F6F6F6",
"-	c #F9F9F9",
";	c #FCFCFC",
">	c #B7B7B7",
",	c #373737",
"'	c #030303",
")	c #000000",
"!	c #595959",
"~	c #E9E9E9",
"{	c #545454",
"]	c #020202",
"^	c #C9C9C9",
"/	c #CACACA",
"(	c #202020",
"_	c #6D6D6D",
":	c #BCBCBC",
"<	c #101010",
"[	c #040404",
"}	c #E1E1E1",
"|	c #A8A8A8",
"1	c #090909",
"2	c #757575",
"3	c #ACACAC",
"4	c #070707",
"5	c #A5A5A5",
"6	c #BFBFBF",
"7	c #0B0B0B",
"8	c #191919",
"9	c #EFEFEF",
"0	c #C8C8C8",
"a	c #9E9E9E",
"b	c #CDCDCD",
"c	c #141414",
"d	c #0C0C0C",
"e	c #A3A3A3",
"f	c #BBBBBB",
"g	c #151515",
"h	c #515151",
"i	c #0A0A0A",
"j	c #3C3C3C",
"k	c #DFDFDF",
"l	c #565656",
"m	c #FBFBFB",
"n	c #010101",
"o	c #575757",
"p	c #2E2E2E",
"q	c #626262",
"r	c #767676",
"s	c #7F7F7F",
"t	c #272727",
"u	c #3D3D3D",
"v	c #434343",
"w	c #262626",
"x	c #2C2C2C",
"y	c #787878",
"z	c #858585",
"A	c #A9A9A9",
"             $% ",
"          >,'))!",
"         {])))]^",
"       /()))))_ ",
"      :<)))))[  ",
"     |1))))))2  ",
"    34)))))))5  ",
"   67)))))))8   ",
"  0<))))))))a   ",
" bc)))))))))de  ",
"fg)))))))))))h  ",
"i))))))))))))j  ",
"))))))))))))))l ",
"))))n))))))))]'o"};
