/* XPM */
static char * icon_xpm[] = {
"32 32 989 2",
"  	c None",
". 	c #A1D5FE",
"+ 	c #A1D4FF",
"@ 	c #9ED5FF",
"# 	c #A9D1FC",
"$ 	c #A4CFF2",
"% 	c #9ECEEE",
"& 	c #92C6E8",
"* 	c #88BDDA",
"= 	c #7CB1DA",
"- 	c #74AFDD",
"; 	c #75B4E2",
"> 	c #7AB6E5",
", 	c #80BAE3",
"' 	c #87C3F0",
") 	c #84C4EB",
"! 	c #7DBBF2",
"~ 	c #7DBBE5",
"{ 	c #7EB8F2",
"] 	c #79B4E6",
"^ 	c #77B6E2",
"/ 	c #71ACE4",
"( 	c #73B2E3",
"_ 	c #76B4E8",
": 	c #79BBEE",
"< 	c #7DBDF4",
"[ 	c #7CBCF2",
"} 	c #82BBEC",
"| 	c #80B8EA",
"1 	c #75B0E8",
"2 	c #67A7DA",
"3 	c #5D9FD0",
"4 	c #5998CC",
"5 	c #9CC9F2",
"6 	c #8EC7FE",
"7 	c #8EC9FC",
"8 	c #8BC9F4",
"9 	c #91C3F0",
"0 	c #8EC9F1",
"a 	c #8BCAF5",
"b 	c #8CC1E7",
"c 	c #7AB1CA",
"d 	c #507CA9",
"e 	c #5A81A2",
"f 	c #6A9DBC",
"g 	c #7FB7D7",
"h 	c #8FC9EB",
"i 	c #94CDF6",
"j 	c #8EC6F9",
"k 	c #8CC5F4",
"l 	c #7EB8EF",
"m 	c #77AFE5",
"n 	c #70B0E4",
"o 	c #6EAEE1",
"p 	c #76B5E0",
"q 	c #7CBBF0",
"r 	c #81C0F1",
"s 	c #88BFFA",
"t 	c #87BEF3",
"u 	c #84BDE6",
"v 	c #7BB9E1",
"w 	c #73B0E1",
"x 	c #69AAD8",
"y 	c #6AACDC",
"z 	c #64A4D4",
"A 	c #80B4D9",
"B 	c #85C2E9",
"C 	c #8CC7F8",
"D 	c #8ECCF9",
"E 	c #8DC7F3",
"F 	c #8EC9F9",
"G 	c #8EC6FA",
"H 	c #83BDDB",
"I 	c #283C64",
"J 	c #223456",
"K 	c #2F3A5F",
"L 	c #393F6F",
"M 	c #4C5F86",
"N 	c #7098C0",
"O 	c #96C9E7",
"P 	c #A4D8FF",
"Q 	c #A6D7FF",
"R 	c #A4D3FF",
"S 	c #9BD0FA",
"T 	c #97C9FB",
"U 	c #94C7F8",
"V 	c #87C2F3",
"W 	c #7DBDE4",
"X 	c #78B7E3",
"Y 	c #71B2DF",
"Z 	c #6CB0DA",
"` 	c #88BFEC",
" .	c #91C7F5",
"..	c #8AC4FB",
"+.	c #86C1EB",
"@.	c #80BBE9",
"#.	c #619ED0",
"$.	c #5EA1CE",
"%.	c #5FA1D6",
"&.	c #6BAADA",
"*.	c #6AAFE0",
"=.	c #70B5E1",
"-.	c #7FBEEB",
";.	c #60A5CC",
">.	c #172C52",
",.	c #25354F",
"'.	c #373D56",
").	c #373E55",
"!.	c #3D455E",
"~.	c #444B70",
"{.	c #556793",
"].	c #76B0CC",
"^.	c #80C5EA",
"/.	c #88C4F4",
"(.	c #93CEFB",
"_.	c #9DCEFF",
":.	c #9BD0FF",
"<.	c #9AD0FC",
"[.	c #97CEFD",
"}.	c #96C9FE",
"|.	c #95C9FD",
"1.	c #95C7FB",
"2.	c #98CFF7",
"3.	c #9BD0FD",
"4.	c #9DD6FF",
"5.	c #9CD1FA",
"6.	c #94CBF8",
"7.	c #92CBFD",
"8.	c #8CC5FD",
"9.	c #88C1FB",
"0.	c #8ABEEF",
"a.	c #87BDF0",
"b.	c #82BCEC",
"c.	c #7CB0E4",
"d.	c #72AEDD",
"e.	c #65A2D1",
"f.	c #1E3059",
"g.	c #2A384D",
"h.	c #3C445D",
"i.	c #404760",
"j.	c #414660",
"k.	c #424662",
"l.	c #44466B",
"m.	c #494F74",
"n.	c #4C72A2",
"o.	c #5091C5",
"p.	c #5CA2D6",
"q.	c #67ABE2",
"r.	c #7EBDEC",
"s.	c #90CBF7",
"t.	c #9FD0FF",
"u.	c #A1D2FF",
"v.	c #A0D1FF",
"w.	c #9ECFFF",
"x.	c #99D1FE",
"y.	c #99D1F9",
"z.	c #96D3FD",
"A.	c #98D4FC",
"B.	c #90CAFB",
"C.	c #92CCFF",
"D.	c #90C8F9",
"E.	c #92CBF9",
"F.	c #97CBF7",
"G.	c #91CBF7",
"H.	c #98CDF4",
"I.	c #92CAF5",
"J.	c #89C3EB",
"K.	c #88BFE2",
"L.	c #3A576E",
"M.	c #28364C",
"N.	c #3C4259",
"O.	c #42485C",
"P.	c #43475F",
"Q.	c #42455E",
"R.	c #3D435D",
"S.	c #3E4562",
"T.	c #464B75",
"U.	c #5577A6",
"V.	c #88BDE1",
"W.	c #89C4E9",
"X.	c #8DCCF3",
"Y.	c #9AC9FC",
"Z.	c #9ACCFF",
"`.	c #97CEFA",
" +	c #8DC5F3",
".+	c #7EBDEB",
"++	c #77B7E8",
"@+	c #76B4E3",
"#+	c #7AB7E9",
"$+	c #82BFF1",
"%+	c #93CBFC",
"&+	c #9BCFFD",
"*+	c #5495C7",
"=+	c #4D95C7",
"-+	c #4E94CC",
";+	c #5096CB",
">+	c #4E97C7",
",+	c #539BC4",
"'+	c #5198C3",
")+	c #5290BE",
"!+	c #365388",
"~+	c #2B384F",
"{+	c #3F4459",
"]+	c #454B60",
"^+	c #474E63",
"/+	c #454664",
"(+	c #404561",
"_+	c #40455D",
":+	c #3E435E",
"<+	c #434770",
"[+	c #577FB0",
"}+	c #87C2F0",
"|+	c #93CBFF",
"1+	c #92CAFE",
"2+	c #8BC5FB",
"3+	c #7EB8EA",
"4+	c #75B1E3",
"5+	c #6EADDE",
"6+	c #70ADE1",
"7+	c #75B2E2",
"8+	c #7BB7ED",
"9+	c #84BFEE",
"0+	c #8EC8F9",
"a+	c #9BCFFC",
"b+	c #5E97CE",
"c+	c #5D94D0",
"d+	c #5A97D4",
"e+	c #5C96C9",
"f+	c #5798CB",
"g+	c #569ACF",
"h+	c #5A98CE",
"i+	c #5A98CC",
"j+	c #4368A8",
"k+	c #2A374E",
"l+	c #41425A",
"m+	c #494C67",
"n+	c #484E66",
"o+	c #474C63",
"p+	c #434961",
"q+	c #3D4259",
"r+	c #3A4057",
"s+	c #3B415D",
"t+	c #3A466F",
"u+	c #709FC3",
"v+	c #A2D8FE",
"w+	c #99D1FF",
"x+	c #95CAFF",
"y+	c #92CAF9",
"z+	c #90C8F6",
"A+	c #92C9FA",
"B+	c #99CFFB",
"C+	c #9CD1FD",
"D+	c #9DD4FF",
"E+	c #A5D3FF",
"F+	c #A8DAFF",
"G+	c #A9DAFE",
"H+	c #81BAF3",
"I+	c #7FBBF0",
"J+	c #83BEEA",
"K+	c #84BFF5",
"L+	c #83BFEB",
"M+	c #84BEF1",
"N+	c #8BC2F0",
"O+	c #89C1F1",
"P+	c #73A8D6",
"Q+	c #273358",
"R+	c #3F4358",
"S+	c #4E4D67",
"T+	c #4D506B",
"U+	c #4C4D65",
"V+	c #484763",
"W+	c #3F4158",
"X+	c #3B3F56",
"Y+	c #373C52",
"Z+	c #353D57",
"`+	c #384C6B",
" @	c #8CC0E1",
".@	c #B2E0FF",
"+@	c #AEDFFF",
"@@	c #ACDEFF",
"#@	c #ABDEFF",
"$@	c #ACDCFF",
"%@	c #B1E2FF",
"&@	c #B9E4FF",
"*@	c #BDE8FF",
"=@	c #C0E8FF",
"-@	c #9BCEFD",
";@	c #9CCFFE",
">@	c #A0D2FE",
",@	c #A3D0FF",
"'@	c #9ED3FC",
")@	c #A2D5FF",
"!@	c #95D0FD",
"~@	c #98CBFA",
"{@	c #84BEE3",
"]@	c #344176",
"^@	c #3E4559",
"/@	c #4F516E",
"(@	c #52536D",
"_@	c #4C4F64",
":@	c #464B61",
"<@	c #454458",
"[@	c #404454",
"}@	c #363F50",
"|@	c #363D50",
"1@	c #49588B",
"2@	c #ADDCF6",
"3@	c #B8E5FF",
"4@	c #B7E4FF",
"5@	c #B1DFFF",
"6@	c #ACDFFF",
"7@	c #AEDEFF",
"8@	c #B5E2FF",
"9@	c #B9E6FF",
"0@	c #BCE7FF",
"a@	c #BCE4FF",
"b@	c #B0DDFF",
"c@	c #ADDFFF",
"d@	c #A8DCFE",
"e@	c #9AD2FD",
"f@	c #8DCEFD",
"g@	c #8AC6F6",
"h@	c #7DBBF1",
"i@	c #73B7E4",
"j@	c #3A4677",
"k@	c #3B445D",
"l@	c #50536F",
"m@	c #55566E",
"n@	c #505367",
"o@	c #464E66",
"p@	c #43465D",
"q@	c #414257",
"r@	c #383D52",
"s@	c #363B4B",
"t@	c #343A4F",
"u@	c #323C5F",
"v@	c #5D8CB7",
"w@	c #B2E3FF",
"x@	c #B6E0FF",
"y@	c #B3E0FF",
"z@	c #A5DAFF",
"A@	c #A1D9FF",
"B@	c #9DD5FF",
"C@	c #9FD5FD",
"D@	c #A0D5F9",
"E@	c #A7D8FF",
"F@	c #A0D3FF",
"G@	c #98CFFF",
"H@	c #97CAF9",
"I@	c #94C5F4",
"J@	c #8AC3F0",
"K@	c #82C1F3",
"L@	c #7BB8ED",
"M@	c #6EA8DB",
"N@	c #4F6F93",
"O@	c #414963",
"P@	c #535267",
"Q@	c #505369",
"R@	c #515469",
"S@	c #454A66",
"T@	c #44465B",
"U@	c #3B4050",
"V@	c #35394C",
"W@	c #333A4A",
"X@	c #2D384E",
"Y@	c #2E3D6A",
"Z@	c #7FBAE4",
"`@	c #A1D7F8",
" #	c #95CDF8",
".#	c #8CC9F3",
"+#	c #89C4F4",
"@#	c #88C5F7",
"##	c #8BC6F8",
"$#	c #8CCBF7",
"%#	c #92CEFE",
"&#	c #95D1FE",
"*#	c #8BC5F3",
"=#	c #82C4F2",
"-#	c #80C0EF",
";#	c #7CB9E9",
">#	c #76B7E0",
",#	c #6EB0E2",
"'#	c #6EABE0",
")#	c #6CA8E2",
"!#	c #63A1D3",
"~#	c #526F8F",
"{#	c #40465E",
"]#	c #51516B",
"^#	c #53536B",
"/#	c #555362",
"(#	c #504F64",
"_#	c #494F63",
":#	c #484A5C",
"<#	c #3E4357",
"[#	c #353A51",
"}#	c #2F374D",
"|#	c #2E3446",
"1#	c #2C3552",
"2#	c #35568D",
"3#	c #81C3EA",
"4#	c #86C4FA",
"5#	c #8DC4F9",
"6#	c #94C8FE",
"7#	c #87C6F2",
"8#	c #82C1EF",
"9#	c #7FB6E1",
"0#	c #72BBDC",
"a#	c #71B1D4",
"b#	c #6EB1E0",
"c#	c #71B1E4",
"d#	c #70B1E7",
"e#	c #77B3E6",
"f#	c #76AFE2",
"g#	c #76B7EA",
"h#	c #7EB8E6",
"i#	c #80BEEE",
"j#	c #81BCE1",
"k#	c #3D4F7A",
"l#	c #4A4F66",
"m#	c #4D516C",
"n#	c #525467",
"o#	c #4D526A",
"p#	c #4D4E60",
"q#	c #494B5C",
"r#	c #43425A",
"s#	c #363C4D",
"t#	c #31364A",
"u#	c #2F3545",
"v#	c #2E3348",
"w#	c #283556",
"x#	c #4882B3",
"y#	c #67AFDC",
"z#	c #5BA3D5",
"A#	c #5392C2",
"B#	c #4E91BD",
"C#	c #498EB6",
"D#	c #4383B1",
"E#	c #4380A9",
"F#	c #3E7CA3",
"G#	c #7EB7EC",
"H#	c #85BDF3",
"I#	c #8EC3FE",
"J#	c #91C6FB",
"K#	c #8DC4FD",
"L#	c #8FC8F8",
"M#	c #8CC6F9",
"N#	c #8CC2F7",
"O#	c #86C6E8",
"P#	c #304B69",
"Q#	c #363F59",
"R#	c #494B63",
"S#	c #52556A",
"T#	c #54556A",
"U#	c #4E5365",
"V#	c #4D5064",
"W#	c #46485E",
"X#	c #404456",
"Y#	c #383B49",
"Z#	c #2F364B",
"`#	c #2F3548",
" $	c #272F3E",
".$	c #293347",
"+$	c #22345D",
"@$	c #4178A8",
"#$	c #3E81B0",
"$$	c #407CAA",
"%$	c #4178A4",
"&$	c #3F7CA9",
"*$	c #3E77A2",
"=$	c #3F79A4",
"-$	c #3E7BA3",
";$	c #A5DBFF",
">$	c #A2D8FF",
",$	c #A3D5FC",
"'$	c #A3DAFF",
")$	c #A5D7FE",
"!$	c #A7DFFF",
"~$	c #A8DDFF",
"{$	c #97CCEE",
"]$	c #2B3E5E",
"^$	c #384056",
"/$	c #4C4B64",
"($	c #535469",
"_$	c #525069",
":$	c #4C4E64",
"<$	c #4A4A5C",
"[$	c #49465A",
"}$	c #444155",
"|$	c #383A4F",
"1$	c #30374A",
"2$	c #2B3549",
"3$	c #2A3242",
"4$	c #242B3E",
"5$	c #212741",
"6$	c #2E587E",
"7$	c #4685B2",
"8$	c #4683B1",
"9$	c #4985B5",
"0$	c #4988B9",
"a$	c #4985B7",
"b$	c #4A87BA",
"c$	c #4988BE",
"d$	c #83BEF1",
"e$	c #7FC1EA",
"f$	c #7DBFEA",
"g$	c #7AB6EB",
"h$	c #7BB8E4",
"i$	c #77B6E5",
"j$	c #74B8EC",
"k$	c #7CB9E5",
"l$	c #6B9DB7",
"m$	c #283859",
"n$	c #40435A",
"o$	c #504F66",
"p$	c #55546C",
"q$	c #56526C",
"r$	c #484E64",
"s$	c #49485C",
"t$	c #46455C",
"u$	c #3F4056",
"v$	c #3B3C51",
"w$	c #34384C",
"x$	c #2B3447",
"y$	c #282E3D",
"z$	c #24283D",
"A$	c #232B40",
"B$	c #263A60",
"C$	c #5996BE",
"D$	c #65A2D4",
"E$	c #64A3D4",
"F$	c #68A7D8",
"G$	c #68A6D9",
"H$	c #66A6D5",
"I$	c #649FD2",
"J$	c #82BDED",
"K$	c #81BDF0",
"L$	c #80B8EE",
"M$	c #7FB7EC",
"N$	c #7CB5F0",
"O$	c #7FB4F0",
"P$	c #80B5ED",
"Q$	c #5C85B2",
"R$	c #323C57",
"S$	c #45465C",
"T$	c #4F4D64",
"U$	c #525162",
"V$	c #4F5162",
"W$	c #464861",
"X$	c #47475B",
"Y$	c #444557",
"Z$	c #3E4157",
"`$	c #383E51",
" %	c #31384C",
".%	c #2B313B",
"+%	c #272B3C",
"@%	c #25293E",
"#%	c #232639",
"$%	c #232C4D",
"%%	c #4F83AD",
"&%	c #86C2F2",
"*%	c #81C2F4",
"=%	c #7FBFE5",
"-%	c #7CB7E6",
";%	c #77B6E4",
">%	c #73AFDE",
",%	c #84BFEC",
"'%	c #89C5F4",
")%	c #92C4FE",
"!%	c #97CEFF",
"~%	c #9CD4FF",
"{%	c #A2D9FF",
"]%	c #A9DCFF",
"^%	c #ABDFFB",
"/%	c #4D7586",
"(%	c #363C58",
"_%	c #44475D",
":%	c #4E5067",
"<%	c #4E5268",
"[%	c #474E64",
"}%	c #464C63",
"|%	c #45495E",
"1%	c #42465B",
"2%	c #444359",
"3%	c #3A3E4E",
"4%	c #32384B",
"5%	c #2C3048",
"6%	c #2C303F",
"7%	c #26313C",
"8%	c #242A3D",
"9%	c #22273C",
"0%	c #264076",
"a%	c #6EB3DB",
"b%	c #80B8F2",
"c%	c #83B7EC",
"d%	c #7FB5EB",
"e%	c #71B1E5",
"f%	c #76B4E1",
"g%	c #99CFFF",
"h%	c #9CD6FD",
"i%	c #A5D7FF",
"j%	c #A5D9FF",
"k%	c #A7D9FF",
"l%	c #AADCFF",
"m%	c #ACE1FF",
"n%	c #95ADCD",
"o%	c #2A3962",
"p%	c #3A425D",
"q%	c #464A61",
"r%	c #4C4F68",
"s%	c #4E4F6C",
"t%	c #484C66",
"u%	c #474861",
"v%	c #464754",
"w%	c #414455",
"x%	c #424355",
"y%	c #3A414F",
"z%	c #353C4E",
"A%	c #2A324B",
"B%	c #282D49",
"C%	c #282E3E",
"D%	c #252D38",
"E%	c #22293D",
"F%	c #1C2C4C",
"G%	c #5295AF",
"H%	c #8BC9E6",
"I%	c #83C4E9",
"J%	c #8FCCE9",
"K%	c #8BCADF",
"L%	c #88C4E1",
"M%	c #A9DAFD",
"N%	c #AAD9FF",
"O%	c #ABDCFD",
"P%	c #A6D9F4",
"Q%	c #5C728A",
"R%	c #333C57",
"S%	c #3F445A",
"T%	c #455061",
"U%	c #524D66",
"V%	c #484960",
"W%	c #484658",
"X%	c #414657",
"Y%	c #444657",
"Z%	c #3F4356",
"`%	c #3F4151",
" &	c #3B3D50",
".&	c #30344D",
"+&	c #292C44",
"@&	c #27293B",
"#&	c #242937",
"$&	c #202733",
"%&	c #1A2640",
"&&	c #1F4264",
"*&	c #3E7FA7",
"=&	c #417FAA",
"-&	c #447EAD",
";&	c #3F7DAD",
">&	c #4A84B0",
",&	c #88BEE0",
"'&	c #77BCE5",
")&	c #7ABAE9",
"!&	c #81B4E4",
"~&	c #7CB4E2",
"{&	c #76B6E4",
"]&	c #6793B9",
"^&	c #273155",
"/&	c #333F51",
"(&	c #3D4559",
"_&	c #494A5F",
":&	c #494A63",
"<&	c #4C4B66",
"[&	c #4C4A61",
"}&	c #444854",
"|&	c #444751",
"1&	c #454853",
"2&	c #414156",
"3&	c #3F4154",
"4&	c #3A3E51",
"5&	c #323648",
"6&	c #2A323F",
"7&	c #232E39",
"8&	c #222739",
"9&	c #1F2630",
"0&	c #1C2536",
"a&	c #152A46",
"b&	c #30638F",
"c&	c #3D76A2",
"d&	c #407DAD",
"e&	c #4484B2",
"f&	c #4885BB",
"g&	c #65A0D7",
"h&	c #6CACE0",
"i&	c #71AFE7",
"j&	c #7BB7EB",
"k&	c #80B8E8",
"l&	c #7AB5D8",
"m&	c #465483",
"n&	c #353A54",
"o&	c #3B414E",
"p&	c #404458",
"q&	c #46465A",
"r&	c #49465E",
"s&	c #4D4F66",
"t&	c #4D4F63",
"u&	c #47475C",
"v&	c #494659",
"w&	c #484959",
"x&	c #444454",
"y&	c #404450",
"z&	c #3D3C51",
"A&	c #33364A",
"B&	c #2D3643",
"C&	c #272E3C",
"D&	c #242638",
"E&	c #232535",
"F&	c #17273D",
"G&	c #24487E",
"H&	c #4C8FC4",
"I&	c #5999CD",
"J&	c #609DD6",
"K&	c #63A3D8",
"L&	c #90C7F3",
"M&	c #94CFFE",
"N&	c #9BD2FE",
"O&	c #A4D7FF",
"P&	c #B6DEFF",
"Q&	c #9FB7C9",
"R&	c #40486B",
"S&	c #3E4653",
"T&	c #42475E",
"U&	c #46475D",
"V&	c #484A61",
"W&	c #494F65",
"X&	c #4C4F61",
"Y&	c #464960",
"Z&	c #4A485A",
"`&	c #48475E",
" *	c #454559",
".*	c #434257",
"+*	c #39394F",
"@*	c #303549",
"#*	c #2D3443",
"$*	c #293140",
"%*	c #252936",
"&*	c #24263A",
"**	c #1B263A",
"=*	c #182738",
"-*	c #1A355E",
";*	c #5DA2D1",
">*	c #6FB4DF",
",*	c #78B7E5",
"'*	c #85C5E1",
")*	c #92CFF3",
"!*	c #96D2FE",
"~*	c #9ED4FD",
"{*	c #A3D9F5",
"]*	c #AAC9CB",
"^*	c #7E8F88",
"/*	c #43455F",
"(*	c #3F4257",
"_*	c #404356",
":*	c #434759",
"<*	c #45495C",
"[*	c #4B4C6A",
"}*	c #4C4E66",
"|*	c #4E515D",
"1*	c #4C4F5F",
"2*	c #4E515E",
"3*	c #4D4D62",
"4*	c #44485A",
"5*	c #373D4F",
"6*	c #31374A",
"7*	c #2C3543",
"8*	c #2C3547",
"9*	c #242C38",
"0*	c #222A36",
"a*	c #1E2435",
"b*	c #162433",
"c*	c #162742",
"d*	c #3B779E",
"e*	c #60A3D1",
"f*	c #5699CC",
"g*	c #589CC7",
"h*	c #7AB8E3",
"i*	c #73B3D6",
"j*	c #75A7C2",
"k*	c #6D75A0",
"l*	c #4E5175",
"m*	c #40475F",
"n*	c #44475B",
"o*	c #454658",
"p*	c #454661",
"q*	c #4C4D64",
"r*	c #4F4F64",
"s*	c #4E5163",
"t*	c #4D4B61",
"u*	c #4A4B5F",
"v*	c #474A5F",
"w*	c #434353",
"x*	c #434555",
"y*	c #3A4051",
"z*	c #343B4C",
"A*	c #303649",
"B*	c #2E3445",
"C*	c #282D3C",
"D*	c #23293B",
"E*	c #1B2735",
"F*	c #1C2633",
"G*	c #192738",
"H*	c #1C3F63",
"I*	c #62A4C9",
"J*	c #67A2D4",
"K*	c #65A1CF",
"L*	c #6988A4",
"M*	c #62678F",
"N*	c #524F6D",
"O*	c #3D4758",
"P*	c #374253",
"Q*	c #404054",
"R*	c #44475A",
"S*	c #46485F",
"T*	c #4D5266",
"U*	c #4C506C",
"V*	c #4D4A62",
"W*	c #4D5163",
"X*	c #4A4C5C",
"Y*	c #474657",
"Z*	c #424455",
"`*	c #404051",
" =	c #353C48",
".=	c #343B47",
"+=	c #2E3642",
"@=	c #2A3440",
"#=	c #262A3C",
"$=	c #202635",
"%=	c #182635",
"&=	c #182736",
"*=	c #1B2E4B",
"==	c #4A81A9",
"-=	c #77BCE2",
";=	c #88B9F2",
">=	c #3F3C4F",
",=	c #373C4E",
"'=	c #323544",
")=	c #323945",
"!=	c #313B47",
"~=	c #313B4E",
"{=	c #393D4B",
"]=	c #414150",
"^=	c #45485C",
"/=	c #474C5A",
"(=	c #4A4D5C",
"_=	c #4F5265",
":=	c #4E4F65",
"<=	c #4C4C6A",
"[=	c #48455E",
"}=	c #444357",
"|=	c #363A4E",
"1=	c #323A4A",
"2=	c #303749",
"3=	c #2C3442",
"4=	c #28303B",
"5=	c #232839",
"6=	c #222736",
"7=	c #222F41",
"8=	c #2E5182",
"9=	c #6BB0D8",
"0=	c #76B1EB",
"a=	c #272C3E",
"b=	c #26293B",
"c=	c #252638",
"d=	c #252C3B",
"e=	c #292A3D",
"f=	c #2B3242",
"g=	c #313646",
"h=	c #36394D",
"i=	c #404258",
"j=	c #42485F",
"k=	c #4C4B63",
"l=	c #4F516C",
"m=	c #50546B",
"n=	c #4E4F63",
"o=	c #4C4D67",
"p=	c #4B4B63",
"q=	c #474A5C",
"r=	c #46465C",
"s=	c #44445A",
"t=	c #40415C",
"u=	c #39394E",
"v=	c #2F374A",
"w=	c #32384D",
"x=	c #28313F",
"y=	c #24293C",
"z=	c #252837",
"A=	c #1E2638",
"B=	c #1E263D",
"C=	c #1F2E53",
"D=	c #5E97D7",
"E=	c #83C0FC",
"F=	c #262635",
"G=	c #252839",
"H=	c #27283A",
"I=	c #262D3B",
"J=	c #282A3D",
"K=	c #2D2E3D",
"L=	c #2F333E",
"M=	c #343542",
"N=	c #383E4C",
"O=	c #414656",
"P=	c #484F61",
"Q=	c #545269",
"R=	c #55586F",
"S=	c #54506C",
"T=	c #515266",
"U=	c #4C5063",
"V=	c #434658",
"W=	c #444358",
"X=	c #3D4251",
"Y=	c #3A3B4F",
"Z=	c #34384B",
"`=	c #303A48",
" -	c #293340",
".-	c #26293A",
"+-	c #252736",
"@-	c #232534",
"#-	c #1E2536",
"$-	c #1E2844",
"%-	c #366E9B",
"&-	c #96D7FC",
"*-	c #282B38",
"=-	c #252B38",
"--	c #282839",
";-	c #272B39",
">-	c #292A38",
",-	c #2B2F3A",
"'-	c #2F3241",
")-	c #353347",
"!-	c #37394B",
"~-	c #3A3B50",
"{-	c #444153",
"]-	c #554E5F",
"^-	c #5C5965",
"/-	c #59576C",
"(-	c #625D6A",
"_-	c #545863",
":-	c #4E5362",
"<-	c #484A5A",
"[-	c #464457",
"}-	c #404156",
"|-	c #363A4F",
"1-	c #333848",
"2-	c #323B41",
"3-	c #33384A",
"4-	c #31364D",
"5-	c #2B323D",
"6-	c #242C3B",
"7-	c #20273C",
"8-	c #212635",
"9-	c #1A2838",
"0-	c #1F335B",
"a-	c #5CA5D7",
"b-	c #262636",
"c-	c #252835",
"d-	c #242634",
"e-	c #242A39",
"f-	c #262738",
"g-	c #2A2D3D",
"h-	c #2E323C",
"i-	c #343446",
"j-	c #383247",
"k-	c #343749",
"l-	c #363B44",
"m-	c #3E4051",
"n-	c #474857",
"o-	c #524F61",
"p-	c #615D68",
"q-	c #645C5E",
"r-	c #58576B",
"s-	c #4D4C67",
"t-	c #474660",
"u-	c #374150",
"v-	c #313748",
"w-	c #333647",
"x-	c #32344E",
"y-	c #2C313F",
"z-	c #262B3C",
"A-	c #1B2534",
"B-	c #16242A",
"C-	c #1A2C42",
"D-	c #43699F",
". + @ # $ % & * = - ; > , ' ) ! ~ { ] ^ / ( _ : < [ } | 1 2 3 4 ",
"5 6 7 8 9 0 a b c d e f g h i j k l m n o p q r s t u v w x y z ",
"A B C D E F G H I J K L M N O P Q R S T U V W X Y Z v `  ...+.@.",
"#.$.%.&.*.=.-.;.>.,.'.).!.~.{.].^./.(._.:.<.[.}.|.1.2.3.4.5.6.7.",
"8.9.0.a.b.c.d.e.f.g.h.i.j.k.l.m.n.o.p.q.r.s.t.u.v.w.x.y.z.A.B.C.",
"D.E.F.G.H.I.J.K.L.M.N.O.P.Q.R.S.T.U.V.W.X.Y.Z.`. +.+++@+#+$+%+&+",
"*+=+-+;+>+,+'+)+!+~+{+]+^+/+(+_+:+<+[+}+|+1+2+3+4+5+6+7+8+9+0+a+",
"b+c+d+e+f+g+h+i+j+k+l+m+n+o+p+q+r+s+t+u+v+w+x+y+z+A+B+C+D+E+F+G+",
"H+I+J+K+L+M+N+O+P+Q+R+S+T+U+V+W+X+Y+Z+`+ @.@.@.@+@@@#@$@%@&@*@=@",
"-@;@>@,@'@)@!@~@{@]@^@/@(@_@:@<@[@}@|@'.1@2@3@4@5@6@@@7@8@9@0@a@",
"b@+@c@d@e@f@g@h@i@j@k@l@m@n@o@p@q@r@s@t@u@v@w@x@y@c@6@z@A@B@C@D@",
"E@F@G@H@I@J@K@L@M@N@O@P@Q@R@m+S@T@U@V@W@X@Y@Z@`@ #.#+#@###$#%#&#",
"*#=#-#;#>#,#'#)#!#~#{#]#^#/#(#_#:#<#[#}#|#1#2#3#4#5#6#7#8#9#0#a#",
"b#c#d#e#f#g#h#i#j#k#r+l#m#n#o#p#q#r#s#t#u#v#w#x#y#z#A#B#C#D#E#F#",
"G#H#I#J#K#L#M#N#O#P#Q#R#S#T#U#V#W#X#Y#Z#`# $.$+$@$#$$$%$&$*$=$-$",
";$>$,$'$A@)$!$~${$]$^$/$($_$:$<$[$}$|$1$2$3$4$5$6$7$8$9$0$a$b$c$",
"d$e$f$g$h$i$j$k$l$m$n$o$p$q$r$s$t$u$v$w$x$y$z$A$B$C$D$E$F$G$H$I$",
"J$K$L$8+M$N$O$P$Q$R$S$T$U$V$W$X$Y$Z$`$ %.%+%@%#%$%%%&%*%=%-%;%>%",
",%'%)%!%~%{%]%^%/%(%_%:%<%[%}%|%1%2%3%4%5%6%7%8%9%0%a%b%c%d%e%f%",
"g%h%i%j%k%l%m%n%o%p%q%r%s%t%u%v%w%x%y%z%A%B%C%D%E%F%G%H%I%J%K%L%",
"M%]%l%#@N%O%P%Q%R%S%T%:%U%V%W%X%Y%Z%`% &.&+&@&#&$&%&&&*&=&-&;&>&",
",&'&)&!&~&{&]&^&/&(&_&:&<&[&}&|&1&2&3&4&5&6&7&8&9&0&a&b&c&d&e&f&",
"g&h&i&j&k&l&m&n&o&p&q&r&s&t&u&v&w&x&y&z&A&B&C&D&E&0&F&G&H&I&J&K&",
"L&M&N&O&P&Q&R&p&S&T&U&V&W&X&Y&Z&`& *.*+*@*#*$*%*&***=*-*;*>*,*'*",
")*!*~*{*]*^*/*(*_*:*<*[*}*|*1*2*3*4*x%5*6*7*8*9*0*a*b*c*d*e*f*g*",
"h*i*j*k*l*m*2&l+n*o*p*q*r*s*t*u*v*w*x*y*z*A*B*C*D*E*F*G*H*I*J*K*",
"L*M*N*X$O*P*Q*q@R*S*u&U+T*U*V*W*X*Y*Z*`* =.=+=@=#=$=%=&=*===-=;=",
">=,='=)=!=~={=]=^=Y&/=(=_=:=<=V%`&[=}=w%|=1=2=3=4=5=6=$=7=8=9=0=",
"a=b=c=d=e=f=g=h=i=j=k=l=m=n=o=p=q=r=s=t=u=v=w=8*x=y=z=A=B=C=D=E=",
"F=G=H=I=J=K=L=M=N=O=P=Q=R=S=T=U=|%V=W=X=Y=Z=s@`= -.-+-@-#-$-%-&-",
"*-=---;->-,-'-)-!-~-{-]-^-/-(-_-:-<-[-}-|-1-2-3-4-5-6-7-8-9-0-a-",
"b-c-d-e-f-g-h-i-j-k-l-m-n-o-p-q-r-s-t-:*u-v-A*w-x-y-z-D&A-B-C-D-"};
