/* XPM */
static char * light_bulb_xpm[] = {
"38 42 194 2",
". 	c None",
"+ 	c #FFFFFF",
"@ 	c #F6F2F6",
"# 	c #CDCACD",
"$ 	c #EEEEEE",
"% 	c #9C999C",
"& 	c #4A484A",
"* 	c #101010",
"= 	c #292C29",
"- 	c #393431",
"; 	c #413C31",
"> 	c #202018",
", 	c #292829",
"' 	c #626162",
") 	c #C5C2C5",
"! 	c #FFFAFF",
"~ 	c #736D62",
"{ 	c #E6CE8B",
"] 	c #EEDE8B",
"^ 	c #F6E29C",
"/ 	c #F6E294",
"( 	c #EED68B",
"_ 	c #DEC68B",
": 	c #B4AA7B",
"< 	c #9C8D5A",
"[ 	c #5A5D4A",
"} 	c #B4B6B4",
"| 	c #A4A1A4",
"1 	c #181C18",
"2 	c #C5BEAC",
"3 	c #F6DE94",
"4 	c #F6E6A4",
"5 	c #FFEAAC",
"6 	c #FFEAA4",
"7 	c #FFE694",
"8 	c #F6E69C",
"9 	c #EEDA9C",
"0 	c #E6CE7B",
"a 	c #D5C683",
"b 	c #838183",
"c 	c #DEDACD",
"d 	c #EEDA83",
"e 	c #EEDA8B",
"f 	c #FFF2C5",
"g 	c #FFF6DE",
"h 	c #FFF2D5",
"i 	c #FFEA9C",
"j 	c #F6E694",
"k 	c #EEDE94",
"l 	c #E6D283",
"m 	c #DED2AC",
"n 	c #5A595A",
"o 	c #949194",
"p 	c #414441",
"q 	c #BDB6AC",
"r 	c #F6DE83",
"s 	c #F6E6B4",
"t 	c #FFF6E6",
"u 	c #FFFAEE",
"v 	c #FFF2DE",
"w 	c #F6E28B",
"x 	c #DECA83",
"y 	c #D5CA94",
"z 	c #313031",
"A 	c #525552",
"B 	c #F6DE9C",
"C 	c #F6DE8B",
"D 	c #FFEECD",
"E 	c #FFF6EE",
"F 	c #FFEEB4",
"G 	c #D5BE73",
"H 	c #A49D83",
"I 	c #525052",
"J 	c #838583",
"K 	c #9C9583",
"L 	c #EED683",
"M 	c #F6EEC5",
"N 	c #F6E68B",
"O 	c #DECA7B",
"P 	c #C5B673",
"Q 	c #292820",
"R 	c #DEDADE",
"S 	c #626562",
"T 	c #C5BA9C",
"U 	c #FFEEBD",
"V 	c #F6EABD",
"W 	c #E6D27B",
"X 	c #C5AE62",
"Y 	c #62615A",
"Z 	c #F6EED5",
"` 	c #F6EAC5",
" .	c #C5B26A",
"..	c #7B756A",
"+.	c #7B797B",
"@.	c #BDB294",
"#.	c #F6EACD",
"$.	c #F6EAB4",
"%.	c #E6D683",
"&.	c #CDBA6A",
"*.	c #7B7152",
"=.	c #949594",
"-.	c #8B8583",
";.	c #F6EAAC",
">.	c #6A654A",
",.	c #A4A5A4",
"'.	c #BDBEBD",
").	c #EEDA94",
"!.	c #F6EAA4",
"~.	c #FFEEAC",
"{.	c #EEE6BD",
"].	c #DEC673",
"^.	c #AC995A",
"/.	c #201C10",
"(.	c #D5D6D5",
"_.	c #6A6D6A",
":.	c #FFF2E6",
"<.	c #F6E6AC",
"[.	c #F6E2A4",
"}.	c #CDBE73",
"|.	c #83795A",
"1.	c #4A4C4A",
"2.	c #393C39",
"3.	c #F6EEDE",
"4.	c #E6D68B",
"5.	c #BDAA62",
"6.	c #4A4839",
"7.	c #202420",
"8.	c #FFEAB4",
"9.	c #948952",
"0.	c #313431",
"a.	c #F6F6F6",
"b.	c #E6E6E6",
"c.	c #414031",
"d.	c #D5C273",
"e.	c #CDB66A",
"f.	c #9C9162",
"g.	c #414039",
"h.	c #F6E6BD",
"i.	c #F6DEA4",
"j.	c #DEC67B",
"k.	c #CDBA73",
"l.	c #C5B273",
"m.	c #ACA573",
"n.	c #7B7962",
"o.	c #080808",
"p.	c #7B7D7B",
"q.	c #6A6D62",
"r.	c #393420",
"s.	c #5A5D5A",
"t.	c #5A594A",
"u.	c #ACA173",
"v.	c #8B8152",
"w.	c #080C08",
"x.	c #BDBABD",
"y.	c #313429",
"z.	c #9C9D9C",
"A.	c #6A6962",
"B.	c #181C10",
"C.	c #948962",
"D.	c #B4A15A",
"E.	c #414439",
"F.	c #000400",
"G.	c #101410",
"H.	c #52554A",
"I.	c #8B8D83",
"J.	c #CDCAC5",
"K.	c #5A5952",
"L.	c #4A4C41",
"M.	c #736D5A",
"N.	c #C5C6C5",
"O.	c #ACAAA4",
"P.	c #393C31",
"Q.	c #393839",
"R.	c #181818",
"S.	c #52504A",
"T.	c #CDCECD",
"U.	c #73716A",
"V.	c #737573",
"W.	c #000000",
"X.	c #080800",
"Y.	c #94958B",
"Z.	c #B4B2B4",
"`.	c #414041",
" +	c #ACAEAC",
".+	c #4A4841",
"++	c #94918B",
"@+	c #6A696A",
"#+	c #73756A",
"$+	c #BDBAB4",
"%+	c #101008",
"&+	c #393831",
"*+	c #737173",
"=+	c #313029",
"-+	c #181810",
". . . . . . . . . . . . . . . . . . . . . . . . . . . . . . . . . . . . . . ",
". . . . . . . . . . . . . . . . . . . . . . . . . . . . . . . . . . . . . . ",
". . . . . . . . . . . . . . . . . . . . . . . . . . . . . . . . . . . . . . ",
". . . . . . . . . . . . . . . . . + + + + + + + . . . . . . . . . . . . . . ",
". . . . . . . . . . . . . . . + + + + + + + + + + + + . . . . . . . . . . . ",
". . . . . . . . . . . . . + + + + + + + + + + + + + + + + . . . . . . . . . ",
". . . . . . . . . . . . + + + + + + @ # # # $ + + + + + + + . . . . . . . . ",
". . . . . . . . . . . + + + + $ % & * = - ; > , ' ) ! + + + + . . . . . . . ",
". . . . . . . . . . + + + + ) = ~ { ] ^ / / ( _ : < [ } + + + + . . . . . . ",
". . . . . . . . . + + + + | 1 2 3 / 4 5 6 7 7 8 9 0 a > b ! + + + . . . . . ",
". . . . . . . . . + + + ) 1 c d e 5 f g h 6 i 7 j k l m n o + + + + . . . . ",
". . . . . . . . . + + ! p q 4 r s t t u u u v i 7 w k x y z # + + + . . . . ",
". . . . . . . . + + + } A B C 8 D t t t t E t F i 7 / ( G H I + + + . . . . ",
". . . . . . . . + + + J K L / 5 t t t t t t t M 4 j N w O P Q R + + + . . . ",
". . . . . . . . + + + S T d 8 U t t t t v t v V 4 7 7 / W X Y | + + + . . . ",
". . . . . . . . + + + S T d 8 U t E E t t v Z ` 4 j j / W  ...+.+ + + . . . ",
". . . . . . . . + + + ' @.d / U t u E t E t #.$.4 j 8 / %.&.*.=.+ + + . . . ",
". . . . . . . . + + + b -.3 j ;.t E t E E U U #.4 j j / W  .>.,.+ + + . . . ",
". . . . . . . . . + + '.p ).C !.g u v t D ~.s {.^ j / ] ].^./.(.+ + + . . . ",
". . . . . . . . . + + ! _.K r 8 h E t :.U 4 <.[./ / ).W }.|.1.! + + . . . . ",
". . . . . . . . . + + + . 2.e !.h E t 3.<.8 4 ^ 3 4.O ].5.6.,.+ + + . . . . ",
". . . . . . . . . . + + + 7./ 8.v v 3.` 4 / / ).4.O ]. .9.0.a.+ + + . . . . ",
". . . . . . . . . . + + b.c.r 8.v ` ` <.^ ] e x d.G e.f.g.| + + + . . . . . ",
". . . . . . . . . . . + ) 6.L V h.i.[./ ] l j.k.l.m.n.o.p.! + + . . . . . . ",
". . . . . . . . . . . . q.* r.s.t.u.( l j.O 5.v.r.w.& x.+ + + + . . . . . . ",
". . . . . . . . . . . . y.z.} $ R A.B.C.l.D.^.E.' . a.+ + + + . . . . . . . ",
". . . . . . . . . . . . F.G.H.I.(.a.J.K.L.|.M., R + + + + + . . . . . . . . ",
". . . . . . . . . . . n > N.O.P.* I.) +.s.w.Q.x.+ + + + . . . . . . . . . . ",
". . . . . . . . . . . R.S.(.+ a.T.= p U.V.w.$ + + + . . . . . . . . . . . . ",
". . . . . . . . . . . W.X.= Y.. ! Z.U.1.g.`.. . . . . . . . . . . . . . . . ",
". . . . . . . . . . R.W.'. +.+w.++o _.@+G.J . . . . . . . . . . . . . . . . ",
". . . . . . . . . . W.#+) @ @ $+S.p p._.F.. . . . . . . . . . . . . . . . . ",
". . . . . . . . . . W.W.E.z Z.$ T.@+`.H.7.. . . . . . . . . . . . . . . . . ",
". . . . . . . . . . . W.G.%+= = z._.@+W.. . . . . . . . . . . . . . . . . . ",
". . . . . . . . . . . W.W.%+> > &+@+*+W.. . . . . . . . . . . . . . . . . . ",
". . . . . . . . . . . G.o.G.* o.=+=+=+* . . . . . . . . . . . . . . . . . . ",
". . . . . . . . . . . L.W.G.-+w.%+W.. . . . . . . . . . . . . . . . . . . . ",
". . . . . . . . . . . . . . W.W.. . . . . . . . . . . . . . . . . . . . . . ",
". . . . . . . . . . . . . . . . . . . . . . . . . . . . . . . . . . . . . . ",
". . . . . . . . . . . . . . . . . . . . . . . . . . . . . . . . . . . . . . ",
". . . . . . . . . . . . . . . . . . . . . . . . . . . . . . . . . . . . . . ",
". . . . . . . . . . . . . . . . . . . . . . . . . . . . . . . . . . . . . . "};
