/* XPM */
static char * matching_queue_small_xpm[] = {
"16 14 38 1",
" 	c None",
".	c #585858",
"+	c #2B2B2B",
"@	c #474747",
"#	c #525252",
"$	c #090909",
"%	c #3D3D3D",
"&	c #4F4F4F",
"*	c #0E0E0E",
"=	c #393939",
"-	c #5D5D5D",
";	c #0F0F0F",
">	c #373737",
",	c #424242",
"'	c #202020",
")	c #4A4A4A",
"!	c #3A3A3A",
"~	c #464646",
"{	c #050505",
"]	c #4E4E4E",
"^	c #4B4B4B",
"/	c #000000",
"(	c #555555",
"_	c #606060",
":	c #444444",
"<	c #7F7F7F",
"[	c #595959",
"}	c #6E6E6E",
"|	c #1B1B1B",
"1	c #0B0B0B",
"2	c #010101",
"3	c #242424",
"4	c #272727",
"5	c #2D2D2D",
"6	c #636363",
"7	c #2E2E2E",
"8	c #5E5E5E",
"9	c #1A1A1A",
"                ",
"      .+@       ",
"     #$%        ",
"    &*=  -      ",
"   &;> ,')      ",
"  !*> ~{]       ",
" ^/= ~/( _:     ",
"  < ,{( +/[     ",
"  }|1] +23      ",
"  .4) 5//4      ",
"    67///$      ",
"   8;/////9     ",
"    ))))))^     ",
"                "};
