/* XPM */
static char * open_trace_xpm[] = {
"26 23 8 1",
" 	c None",
".	c #000000",
"+	c #909090",
"@	c #393939",
"#	c #4B4B4B",
"$	c #585858",
"%	c #262626",
"&	c #808080",
"..........................",
".                        .",
".                 +++++  .",
".               ++....@  .",
".              +..# #.$  .",
".             +.#  +.#   .",
".            +.#   +.#   .",
".           +.#    +.#   .",
".          +.#    +.#    .",
".         +.#     +.#    .",
".        +%#      +.#    .",
".        +.       +.#    .",
".       +.&       +.#    .",
".      +.#        +.#    .",
".     +.#         +.#    .",
".    +.#          +.#    .",
".   +.#           +.#    .",
".  +.#             +.#   .",
".++.#               +.#  .",
"...#                +.#  .",
".##                 +.#  .",
".                    +.# .",
".........................."};
