/* XPM */
static char * open_image_xpm[] = {
"26 23 142 2",
"  	c None",
". 	c #000000",
"+ 	c #707070",
"@ 	c #7D7D7D",
"# 	c #818181",
"$ 	c #808080",
"% 	c #8F8F8F",
"& 	c #9B9B9B",
"* 	c #979797",
"= 	c #868686",
"- 	c #7A7A7A",
"; 	c #757575",
"> 	c #767676",
", 	c #797979",
"' 	c #7E7E7E",
") 	c #737373",
"! 	c #AEAEAE",
"~ 	c #B4B4B4",
"{ 	c #A8A8A8",
"] 	c #959595",
"^ 	c #828282",
"/ 	c #6E6E6E",
"( 	c #848484",
"_ 	c #9C9C9C",
": 	c #9D9D9D",
"< 	c #7F7F7F",
"[ 	c #787878",
"} 	c #8E8E8E",
"| 	c #898989",
"1 	c #A2A2A2",
"2 	c #999999",
"3 	c #A5A5A5",
"4 	c #A7A7A7",
"5 	c #7B7B7B",
"6 	c #7C7C7C",
"7 	c #5F5F5F",
"8 	c #353535",
"9 	c #272727",
"0 	c #1B1B1B",
"a 	c #181818",
"b 	c #161616",
"c 	c #393939",
"d 	c #777777",
"e 	c #838383",
"f 	c #858585",
"g 	c #B2B2B2",
"h 	c #CCCCCC",
"i 	c #CACACA",
"j 	c #ABABAB",
"k 	c #B0B0B0",
"l 	c #C0C0C0",
"m 	c #B5B5B5",
"n 	c #929292",
"o 	c #8D8D8D",
"p 	c #909090",
"q 	c #4B4B4B",
"r 	c #1E1E1E",
"s 	c #151515",
"t 	c #141414",
"u 	c #585858",
"v 	c #CDCDCD",
"w 	c #BEBEBE",
"x 	c #717171",
"y 	c #939393",
"z 	c #A3A3A3",
"A 	c #A9A9A9",
"B 	c #A0A0A0",
"C 	c #2A2A2A",
"D 	c #1D1D1D",
"E 	c #6B6B6B",
"F 	c #6D6D6D",
"G 	c #676767",
"H 	c #666666",
"I 	c #6A6A6A",
"J 	c #5C5C5C",
"K 	c #202020",
"L 	c #2C2C2C",
"M 	c #656565",
"N 	c #686868",
"O 	c #727272",
"P 	c #747474",
"Q 	c #6C6C6C",
"R 	c #505050",
"S 	c #212121",
"T 	c #4A4A4A",
"U 	c #9E9E9E",
"V 	c #262626",
"W 	c #AFAFAF",
"X 	c #A1A1A1",
"Y 	c #ACACAC",
"Z 	c #515151",
"` 	c #989898",
" .	c #A4A4A4",
"..	c #C7C7C7",
"+.	c #B9B9B9",
"@.	c #878787",
"#.	c #2E2E2E",
"$.	c #D1D1D1",
"%.	c #D9D9D9",
"&.	c #DBDBDB",
"*.	c #D7D7D7",
"=.	c #696969",
"-.	c #6F6F6F",
";.	c #343434",
">.	c #4D4D4D",
",.	c #9F9F9F",
"'.	c #9A9A9A",
").	c #B3B3B3",
"!.	c #BCBCBC",
"~.	c #C3C3C3",
"{.	c #606060",
"].	c #D3D3D3",
"^.	c #CBCBCB",
"/.	c #C4C4C4",
"(.	c #E0E0E0",
"_.	c #CECECE",
":.	c #DCDCDC",
"<.	c #3C3C3C",
"[.	c #949494",
"}.	c #969696",
"|.	c #373737",
"1.	c #3B3B3B",
"2.	c #292929",
"3.	c #ADADAD",
"4.	c #BFBFBF",
"5.	c #303030",
"6.	c #171717",
"7.	c #D4D4D4",
"8.	c #D5D5D5",
"9.	c #D8D8D8",
"0.	c #414141",
"a.	c #191919",
"b.	c #C9C9C9",
"c.	c #4C4C4C",
"d.	c #1C1C1C",
"e.	c #AAAAAA",
"f.	c #484848",
"g.	c #E7E7E7",
"h.	c #1A1A1A",
"i.	c #1F1F1F",
"j.	c #252525",
"k.	c #494949",
". . . . . . . . . . . . . . . . . . . . . . . . . . ",
". + @ # $ % % % & * = - ; > , , ; ' $ ' - , ) ; $ . ",
". ! ~ { ] ^ ; / / ( _ : % < # < [ $ } $ $ | % : 1 . ",
". ] { _ * 2 3 4 3 2 = , - 5 6 @ 7 8 9 0 a b c d e . ",
". = f 2 g h i j : k l m n o p q r s t t t s u v w . ",
". x p 1 = $ y * ^ z A B y < C b t t t t t D * o , . ",
". E F E G H I x d 5 | @ J K s s t t t t t L M G M . ",
". f < d F N E O P Q N R S s t s s t t t t T < $ # . ",
". B U n @ 5 e % y o x V s t t t t t t t a ( ! W ! . ",
". * 2 _ 1 _ : X Y _ L s s s t t t t t s Z 2 * ` U . ",
". _  .j g ..+.* @.#.s s t t t t t t t b + $.%.&.*.. ",
". - x =.G =.-.) ;.s t t t t t s s t t t >.: ,.A Y . ",
". '.z 4 ).!.~.P 0 s t t t t t t t t t t {...].^./.. ",
". (.]._.:.l f 9 s t t t t t t t t t t t <.- $ # | . ",
". [.U }.,.1 |.t t t t t s t t t t t t t 1.1 3 & }.. ",
". < ( ( $ |.s t t t t t t t t t t t t t 2.3./.4.w . ",
". = | - 5.6.s s s s s s s t s s s s t s a [.7.8.9.. ",
". ^ ' 0.a.s s s s t t t t t s s s s s s s ) _.$.b.. ",
". ^ c.d.6.s s s s t t t s s s s s s s s s S e.).).. ",
". J D a b s s s s s s s s s s s b s s b b 6.f.*.g.. ",
". 0 b b b s s s s t t s s s t s s s s s 6.h.r {.).. ",
". 6.b b s s s s s t t t s s s b b b b b a.d.i.j.k.. ",
". . . . . . . . . . . . . . . . . . . . . . . . . . "};
