/* XPM */
static char * open_trace_small_xpm[] = {
"16 14 4 1",
" 	c None",
".	c #000000",
"+	c #BEBEBE",
"@	c #4A4A4A",
"............... ",
".        +++  . ",
".       +...@ . ",
".      +.@ @. . ",
".     +.@ +.@ . ",
".    +.@  +.@ . ",
".   +.@   +.@ . ",
".  +.@    +.@ . ",
". +.@     +.@ . ",
".+.@      +.@ . ",
"..@        +.+. ",
".@          @.. ",
".            @. ",
"............... "};
