/* XPM */
static char * resize_button[] = {
"22 23 4 1",
". c #000000",
"# c #808080",
"$ c #DEDADE",
"+ c None",
"++++++++++++++++++++++",
"++++++++++++++++++++++",
"++++++++++++++++++++++",
"++++++++++++++++++++++",
"+++................+++",
"+++.+++++++...++++.+++",
"+++.++++++.+.+.+++.+++",
"+++.+.++++++.+++.+.+++",
"+++..+++++++.++++..+++",
"+++................+++",
"+++..+++++++.++++..+++",
"+++.+.++++++.+++.+.+++",
"+++.++++++++.+++++.+++",
"+++.++++++++.+++++.+++",
"+++.++++++++.+++++.+++",
"+++.++++++++.+++++.+++",
"+++.++++++++.+++++.+++",
"+++.++++++.+.+.+++.+++",
"+++.+++++++...++++.+++",
"+++................+++",
"++++++++++++++++++++++",
"++++++++++++++++++++++",
"++++++++++++++++++++++"};
