/* XPM */
static char * smooth_xpm[] = {
"26 23 166 2",
"  	c None",
". 	c #F3F3F3",
"+ 	c #EEEEEE",
"@ 	c #E6E6E6",
"# 	c #DADADA",
"$ 	c #C8C8C8",
"% 	c #B0B0B0",
"& 	c #999999",
"* 	c #959595",
"= 	c #ACACAC",
"- 	c #C7C7C7",
"; 	c #F6F6F6",
"> 	c #F0F0F0",
", 	c #E4E4E4",
"' 	c #D4D4D4",
") 	c #C1C1C1",
"! 	c #AFAFAF",
"~ 	c #9B9B9B",
"{ 	c #868686",
"] 	c #747474",
"^ 	c #757575",
"/ 	c #8E8E8E",
"( 	c #A9A9A9",
"_ 	c #F1F1F1",
": 	c #EAEAEA",
"< 	c #D7D7D7",
"[ 	c #BEBEBE",
"} 	c #A2A2A2",
"| 	c #858585",
"1 	c #6D6D6D",
"2 	c #585858",
"3 	c #494949",
"4 	c #424242",
"5 	c #686868",
"6 	c #878787",
"7 	c #EDEDED",
"8 	c #E5E5E5",
"9 	c #CFCFCF",
"0 	c #8D8D8D",
"a 	c #6C6C6C",
"b 	c #4E4E4E",
"c 	c #383838",
"d 	c #282828",
"e 	c #202020",
"f 	c #222222",
"g 	c #333333",
"h 	c #5B5B5B",
"i 	c #808080",
"j 	c #DCDCDC",
"k 	c #C3C3C3",
"l 	c #A1A1A1",
"m 	c #7A7A7A",
"n 	c #555555",
"o 	c #151515",
"p 	c #0D0D0D",
"q 	c #1B1B1B",
"r 	c #363636",
"s 	c #696969",
"t 	c #949494",
"u 	c #E3E3E3",
"v 	c #B9B9B9",
"w 	c #484848",
"x 	c #2B2B2B",
"y 	c #171717",
"z 	c #0C0C0C",
"A 	c #060606",
"B 	c #050505",
"C 	c #252525",
"D 	c #4C4C4C",
"E 	c #B4B4B4",
"F 	c #E0E0E0",
"G 	c #D3D3D3",
"H 	c #B2B2B2",
"I 	c #898989",
"J 	c #616161",
"K 	c #3D3D3D",
"L 	c #111111",
"M 	c #070707",
"N 	c #030303",
"O 	c #020202",
"P 	c #3B3B3B",
"Q 	c #AAAAAA",
"R 	c #D1D1D1",
"S 	c #DFDFDF",
"T 	c #AEAEAE",
"U 	c #848484",
"V 	c #595959",
"W 	c #353535",
"X 	c #010101",
"Y 	c #000000",
"Z 	c #232323",
"` 	c #545454",
" .	c #8C8C8C",
"..	c #DDDDDD",
"+.	c #CECECE",
"@.	c #ABABAB",
"#.	c #313131",
"$.	c #191919",
"%.	c #0A0A0A",
"&.	c #141414",
"*.	c #A7A7A7",
"=.	c #DBDBDB",
"-.	c #F2F2F2",
";.	c #7E7E7E",
">.	c #525252",
",.	c #2E2E2E",
"'.	c #161616",
").	c #090909",
"!.	c #080808",
"~.	c #1F1F1F",
"{.	c #474747",
"].	c #BCBCBC",
"^.	c #E7E7E7",
"/.	c #E1E1E1",
"(.	c #D0D0D0",
"_.	c #7D7D7D",
":.	c #515151",
"<.	c #2D2D2D",
"[.	c #2A2A2A",
"}.	c #5A5A5A",
"|.	c #9A9A9A",
"1.	c #CBCBCB",
"2.	c #818181",
"3.	c #2C2C2C",
"4.	c #393939",
"5.	c #6F6F6F",
"6.	c #D2D2D2",
"7.	c #838383",
"8.	c #565656",
"9.	c #1E1E1E",
"0.	c #4B4B4B",
"a.	c #B3B3B3",
"b.	c #E8E8E8",
"c.	c #D8D8D8",
"d.	c #888888",
"e.	c #575757",
"f.	c #0E0E0E",
"g.	c #939393",
"h.	c #B8B8B8",
"i.	c #5C5C5C",
"j.	c #323232",
"k.	c #181818",
"l.	c #0F0F0F",
"m.	c #292929",
"n.	c #8F8F8F",
"o.	c #C5C5C5",
"p.	c #B6B6B6",
"q.	c #0B0B0B",
"r.	c #5F5F5F",
"s.	c #1A1A1A",
"t.	c #131313",
"u.	c #CACACA",
"v.	c #212121",
"w.	c #BABABA",
"x.	c #373737",
"y.	c #A8A8A8",
"z.	c #272727",
"A.	c #121212",
"B.	c #C2C2C2",
"C.	c #6A6A6A",
"D.	c #9F9F9F",
"E.	c #040404",
"F.	c #414141",
"G.	c #919191",
"H.	c #262626",
"I.	c #4A4A4A",
"                                . + @ # $ % & * = - ",
"                            ; > , ' ) ! ~ { ] ^ / ( ",
"                          _ : < [ } | 1 2 3 4 3 5 6 ",
"                        7 8 9 % 0 a b c d e f g h i ",
"                      @ j k l m n c f o p p q r s t ",
"                    u < v t a w x y z A B z C D 6 E ",
"                  F G H I J K f L M N O A o P a Q R ",
"                S R T U V W q p B X Y O z Z `  .- @ ",
"              ..+.@.i n #.$.%.N X Y Y B &.W 1 *.=.-.",
"            F 9 Q ;.>.,.'.).N Y Y Y X !.~.{.| ].^.; ",
"          /.(.@._.:.<.o !.N Y Y Y Y N p [.}.|.1.:   ",
"        , ' T 2.:.3.&.M O Y Y Y Y X B &.4.5.! 6.    ",
"      8 ' H 7.8.,.o !.O Y Y Y Y Y O %.9.0.U a.      ",
"    b.c.E d.e.#.'.!.O Y Y Y Y Y Y N f.d V g.-       ",
"  ^.< h.I i.j.k.).N Y Y Y Y Y Y Y N l.m.2 n.o.      ",
"/.< p.0 i.r k.%.N Y Y Y Y Y Y Y Y O q.e w m H '     ",
"o.% d.r.W s.%.N Y Y Y Y Y Y Y Y Y X A t.j.r.|.u.:   ",
"g._.e.r $.q.N Y Y Y Y Y Y Y Y Y Y Y N q.v.w U w.8   ",
"V 3 ,.$.%.N Y Y Y Y Y Y Y Y Y Y Y Y X A y x.5.y.#   ",
"z.~.A.).N Y Y Y Y Y Y Y Y Y Y Y Y Y Y N l.d 2  .B...",
"p ).B O Y Y Y Y Y Y Y Y Y Y Y Y Y Y Y O ).s.K C.D.B.",
"O X Y Y Y Y Y Y Y Y Y Y Y Y Y Y Y Y Y X E.z v.F.5.G.",
"Y Y Y Y Y Y Y Y Y Y Y Y Y Y Y Y Y Y Y Y X B L H.I.5 "};
