/* XPM */
static char * undo_button_xpm[] = {
"22 21 5 1",
"@ c #000000",
". c #00FF00",
"# c #808080",
"$ c #DEDADE",
"+ c None",
"++++++++++++++++++++++",
"++++++++++++++++++++++",
"++++++++++++++++++++++",
"++++++++++++++++++++++",
"++@@++++++++++++++++++",
"++@.@++@@@@@@@@$++++++",
"++@..@@........@$+++++",
"++@.....@@@@@@..@$++++",
"++@....@#$$$$$@..@$+++",
"++@.....@#$++++@..@$++",
"++@......@$+++++@..@$+",
"++@@@@@@@@$+++++@..@$+",
"++++++++++++++++@..@$+",
"++++++++++++++++@..@$+",
"++++++++++++++++@..@$+",
"++++++++++++++++@@@@$+",
"++++++++++++++++++++++",
"++++++++++++++++++++++",
"++++++++++++++++++++++",
"++++++++++++++++++++++",
"++++++++++++++++++++++"};
