/* XPM */
static char * flip_v_xpm[] = {
"32 16 127 2",
"  	c None",
". 	c #000000",
"+ 	c #9B9B9B",
"@ 	c #B4B4B4",
"# 	c #B9B9B9",
"$ 	c #FFFFFF",
"% 	c #929292",
"& 	c #ABABAB",
"* 	c #B2B2B2",
"= 	c #C0C0C0",
"- 	c #727272",
"; 	c #0B0B0B",
"> 	c #5D5D5D",
", 	c #747474",
"' 	c #8B8B8B",
") 	c #9C9C9C",
"! 	c #B6B6B6",
"~ 	c #BDBDBD",
"{ 	c #C4C4C4",
"] 	c #C7C7C7",
"^ 	c #0C0C0C",
"/ 	c #313331",
"( 	c #475947",
"_ 	c #3A7C3A",
": 	c #437243",
"< 	c #486248",
"[ 	c #B3B3B3",
"} 	c #C2C2C2",
"| 	c #C9C9C9",
"1 	c #D0D0D0",
"2 	c #8E8E8E",
"3 	c #050705",
"4 	c #2C702C",
"5 	c #135413",
"6 	c #375A37",
"7 	c #257125",
"8 	c #2B702B",
"9 	c #707070",
"0 	c #979797",
"a 	c #CDCDCD",
"b 	c #D4D4D4",
"c 	c #DADADA",
"d 	c #111111",
"e 	c #396839",
"f 	c #2C682C",
"g 	c #293B29",
"h 	c #144214",
"i 	c #436C43",
"j 	c #7D7474",
"k 	c #844444",
"l 	c #959191",
"m 	c #D9D9D9",
"n 	c #E0E0E0",
"o 	c #ADADAD",
"p 	c #757E75",
"q 	c #468C46",
"r 	c #186E18",
"s 	c #1F581F",
"t 	c #115C11",
"u 	c #385C38",
"v 	c #772A2A",
"w 	c #9C4D4D",
"x 	c #883232",
"y 	c #6A6A6A",
"z 	c #D7D7D7",
"A 	c #EBEBEB",
"B 	c #444544",
"C 	c #659065",
"D 	c #114311",
"E 	c #1C561C",
"F 	c #4A624A",
"G 	c #5F6A5F",
"H 	c #8C4747",
"I 	c #573E41",
"J 	c #815253",
"K 	c #764949",
"L 	c #F0F0F0",
"M 	c #CECECE",
"N 	c #070707",
"O 	c #818181",
"P 	c #858585",
"Q 	c #7E5B3D",
"R 	c #A3A2A1",
"S 	c #7A7A7A",
"T 	c #876767",
"U 	c #3A4359",
"V 	c #503239",
"W 	c #974747",
"X 	c #B8B8B8",
"Y 	c #F4F4F4",
"Z 	c #FBFBFB",
"` 	c #686868",
" .	c #7B7B7B",
"..	c #BABABA",
"+.	c #876B53",
"@.	c #8A715B",
"#.	c #CFCFCF",
"$.	c #7C5E5E",
"%.	c #8E4242",
"&.	c #9C4343",
"*.	c #8E5050",
"=.	c #877777",
"-.	c #F9F9F9",
";.	c #FEFEFE",
">.	c #BEBEBE",
",.	c #A4978B",
"'.	c #8E6643",
").	c #B1B0AF",
"!.	c #A7A7A7",
"~.	c #8A6D6D",
"{.	c #9C9595",
"].	c #C8C8C8",
"^.	c #AAAAAA",
"/.	c #666666",
"(.	c #1C1C1C",
"_.	c #A6A6A6",
":.	c #AC9785",
"<.	c #C6C2BF",
"[.	c #C3C3C3",
"}.	c #424242",
"|.	c #080808",
"1.	c #717171",
"2.	c #5F5F5F",
"3.	c #252525",
"4.	c #020202",
"5.	c #040404",
"6.	c #060606",
"                                                                ",
"      . . . . . .             + @ #                             ",
"      . $ $ $ $ .         % & * # = -                           ",
"        . $ $ $ .   ; > , ' ) ! ~ { ]                           ",
"        . $ $ $ . ^ / ( _ : < [ } | 1 2                         ",
"      . $ . . $ . 3 4 5 6 7 8 9 0 a b c                         ",
"      . $ .   . . d e f g h i j k l m n o                       ",
"    . $ .         p q r s t u v w x y z A                       ",
"    . $ .         B C D E F G H I J K b L M                     ",
"      . $ N   . .   O P Q R S T U V W X Y Z `                   ",
"      . $ . . $ .    ...+.@.#.$.%.&.*.=.-.;...                  ",
"        . $ $ $ .     >.,.'.).!.~.{.].^./.(..                   ",
"        . $ $ $ .     ! _.:.<.[.P }.|.. . .                     ",
"      . $ $ $ $ .     1.) 2.3.. . . .                           ",
"      . . 4.5.6..       . . .                                   ",
"                                                                "};
