/* XPM */
static char * zoom_in_xpm[] = {
"22 23 4 1",
" 	c None",
".	c #000000",
"+	c #DEDADE",
"@	c #FFFFFF",
"                      ",
"                      ",
"                      ",
"      ......++        ",
"     ..@@@@..++       ",
"    ..@@++@@..++      ",
"   ..@@@@++@@..+      ",
"   .@@@@@@++@@.+      ",
"   .@@@@@@@++@.+      ",
"   .@@@@@@@@@@.+      ",
"   ..@@@@@@@@..+      ",
"    ..@@@@@@..++...   ",
"     ..@@@@...+ ...   ",
"      .........+...   ",
"             ......   ",
"              .....   ",
"            ..........",
"            ..........",
"            ..........",
"                ...   ",
"                ...   ",
"                ...   ",
"                ...   "};
