/* XPM */
static char * open_small_xpm[] = {
"16 14 50 1",
" 	c None",
".	c #3C382F",
"+	c #35312A",
"@	c #23201B",
"#	c #1E1C17",
"$	c #635C4E",
"%	c #928B7B",
"&	c #AAA291",
"*	c #CDCCC3",
"=	c #A7A7A5",
"-	c #060605",
";	c #1C1A16",
">	c #9C917B",
",	c #5F594B",
"'	c #7E7563",
")	c #CEC9B9",
"!	c #D2CDBE",
"~	c #FFFFF6",
"{	c #9C9C96",
"]	c #67645D",
"^	c #554F43",
"/	c #AFA693",
"(	c #F6F5EB",
"_	c #EAEAE2",
":	c #B9B9B3",
"<	c #423F38",
"[	c #787060",
"}	c #948975",
"|	c #2A2721",
"1	c #A39B8A",
"2	c #6A6861",
"3	c #675F51",
"4	c #D5D0C1",
"5	c #3F3C35",
"6	c #26231E",
"7	c #A59C89",
"8	c #3A362E",
"9	c #968B76",
"0	c #817866",
"a	c #2F2C25",
"b	c #595346",
"c	c #38342C",
"d	c #978C77",
"e	c #3C3830",
"f	c #191714",
"g	c #2F2B25",
"h	c #8A806D",
"i	c #22201B",
"j	c #151411",
"k	c #27241F",
"                ",
"                ",
"        .+      ",
"  @ #@$%&*=@-   ",
" ;>,')!~{],>;   ",
"  ^/(_:<[}>>;   ",
"  |1~2$>>>>>;   ",
"   345>>>>>>;   ",
"   678>>>90a    ",
"    bc>>de      ",
"    fgh$i       ",
"     jk         ",
"                ",
"                "};
