/* XPM */
static char * open_image_small_xpm[] = {
"16 14 70 1",
" 	c None",
".	c #000000",
"+	c #979797",
"@	c #888888",
"#	c #808080",
"$	c #868686",
"%	c #919191",
"&	c #898989",
"*	c #7D7D7D",
"=	c #7C7C7C",
"-	c #737373",
";	c #757575",
">	c #6D6D6D",
",	c #8C8C8C",
"'	c #A1A1A1",
")	c #B6B6B6",
"!	c #AEAEAE",
"~	c #A3A3A3",
"{	c #A4A4A4",
"]	c #8F8F8F",
"^	c #646464",
"/	c #2E2E2E",
"(	c #1B1B1B",
"_	c #161616",
":	c #999999",
"<	c #858585",
"[	c #7E7E7E",
"}	c #8A8A8A",
"|	c #9B9B9B",
"1	c #494949",
"2	c #141414",
"3	c #151515",
"4	c #4F4F4F",
"5	c #7F7F7F",
"6	c #727272",
"7	c #6B6B6B",
"8	c #777777",
"9	c #6C6C6C",
"0	c #3E3E3E",
"a	c #181818",
"b	c #626262",
"c	c #939393",
"d	c #8E8E8E",
"e	c #4D4D4D",
"f	c #323232",
"g	c #989898",
"h	c #535353",
"i	c #1A1A1A",
"j	c #525252",
"k	c #BFBFBF",
"l	c #C5C5C5",
"m	c #9C9C9C",
"n	c #787878",
"o	c #1C1C1C",
"p	c #4A4A4A",
"q	c #B7B7B7",
"r	c #BABABA",
"s	c #B9B9B9",
"t	c #313131",
"u	c #363636",
"v	c #797979",
"w	c #2B2B2B",
"x	c #B3B3B3",
"y	c #C1C1C1",
"z	c #383838",
"A	c #1D1D1D",
"B	c #A2A2A2",
"C	c #D0D0D0",
"D	c #171717",
"E	c #1F1F1F",
"............... ",
".+@#$%&*=-;>;,. ",
".')!~{]$^/(_/:. ",
".<[&}|@1(22345. ",
".67-890_322ab5. ",
".cd+|ea2222fg~. ",
".g{%hi22222jkl. ",
".m~no222222pqr. ",
".s:t2222222u]]. ",
".vu_2222222wxy. ",
".z_33222333ABC. ",
".a333233333_pr. ",
"._333233333DE9. ",
"............... "};
