/* XPM */
static char * pencil_xpm[] = {
"22 22 5 1",
".	c None",
"+	c #000000",
"@	c #DEDADE",
"#	c #949194",
"$	c #FFFFFF",
"......................",
"......................",
"......................",
"...........++++.......",
"...........+@@@+......",
"..........+@@@@+#.....",
"..........++@@+##.....",
".........+$$+++#......",
".........+$@@+##......",
"........+$$@@+#.......",
"........+$@@+##.......",
".......+$$@@+#........",
".......+$@@+##........",
".......++@@+#.........",
".......++++##.........",
".......+++##..........",
".......++##...........",
".......+##............",
"........#.............",
"......................",
"......................",
"......................"};
